<svg width="149" height="161" viewBox="0 0 149 161" fill="none" xmlns="http://www.w3.org/2000/svg">
<path fill-rule="evenodd" clip-rule="evenodd" d="M111.221 109.383C111.221 111.731 109.283 113.647 106.893 113.647H10.979C4.92701 113.647 0 108.802 0 102.856V42.2086C0 38.0895 2.26155 34.5628 5.71982 32.7521L53.1564 5.89513C54.0939 5.34613 54.9122 4.87275 55.9945 4.87275C58.4243 4.87275 60.3941 6.8083 60.3941 9.19578C60.3941 11.0663 59.5347 12.0803 57.4905 13.257L10.8074 39.7339C9.52511 40.4893 8.66688 41.8687 8.66658 43.4446L8.63475 100.812C8.63475 103.2 10.6045 105.165 13.0343 105.165L106.893 105.125C109.283 105.125 111.221 107.034 111.221 109.383ZM87.6375 29.3992L134.993 116.06C135.922 117.641 136.453 119.473 136.453 121.43C136.453 125.39 134.277 128.839 131.036 130.714H131.033L79.997 159.665C78.4329 160.51 76.6372 161 74.7263 161C72.6873 161 70.7783 160.453 69.1433 159.5L68.4153 159.124L23.5691 132.64C22.276 131.905 21.4037 130.532 21.4037 128.958C21.4037 126.61 23.3412 124.706 25.7312 124.706C26.5197 124.706 27.2566 124.916 27.8933 125.278L27.8949 125.276L72.3066 151.496C72.9788 151.919 73.7778 152.163 74.635 152.163C75.4652 152.163 76.2448 151.934 76.9036 151.536L124.819 124.356L124.806 124.369C126.163 123.652 127.086 122.244 127.086 120.623C127.086 119.901 126.903 119.223 126.579 118.627L83.3626 39.7669L55.3181 87.5043H89.3645L79.6694 69.8403C79.2577 69.0967 78.9274 68.3315 78.9274 67.4486C78.9274 65.0972 80.8674 63.1909 83.2605 63.1909C84.7844 63.1909 86.1219 63.9654 86.8944 65.1341L100.478 89.3924C100.908 90.0602 101.161 90.8484 101.161 91.697C101.161 94.0845 99.1909 95.9884 96.761 95.9884H96.716H47.808C44.991 96.0377 43.2645 94.1208 43.4941 91.617C43.5912 90.5569 43.997 89.8042 44.5365 88.8278L79.4043 29.4864C80.4087 27.7586 81.5596 26.7305 83.5372 26.6339C85.405 26.5427 86.7389 27.8614 87.6375 29.3992ZM144.545 33.4C148.681 35.8292 148.94 38.7593 149 42.2687L148.976 108.446C148.976 110.795 147.034 112.698 144.644 112.698C142.254 112.698 140.309 110.795 140.309 108.446V43.2143C140.309 41.616 139.434 40.2203 138.122 39.4722L86.0902 9.92311C85.3912 9.46363 84.5509 9.19571 83.6468 9.19571C81.9226 9.19571 80.43 10.1702 79.7086 11.5893L32.2655 92.3421C31.1274 94.1737 30.0347 95.0508 28.1862 95.0508C25.7563 95.0508 23.4069 93.0861 23.7866 90.7278C23.9601 89.6501 24.274 88.879 24.9114 87.848L73.388 5.15527C75.3403 1.98306 78.7983 0 82.8464 0C84.8361 0 86.6709 0.49395 88.2879 1.39163L144.545 33.4Z" fill="white"/>
</svg>
