<svg 
 xmlns="http://www.w3.org/2000/svg"
 xmlns:xlink="http://www.w3.org/1999/xlink"
 width="754px" height="821px">
<path fill-rule="evenodd"  opacity="0.102" fill="rgb(141, 152, 169)"
 d="M562.624,557.940 C562.624,569.901 552.824,579.660 540.738,579.660 L55.661,579.660 C25.053,579.660 0.135,554.982 0.135,524.694 L0.135,215.793 C0.135,194.813 11.573,176.849 29.063,167.627 L268.969,30.833 C273.711,28.036 277.848,25.626 283.322,25.626 C295.610,25.626 305.573,35.484 305.573,47.644 C305.573,57.172 301.226,62.336 290.888,68.330 L54.792,203.188 C48.308,207.036 43.967,214.062 43.966,222.088 L43.805,514.287 C43.805,526.448 53.766,536.459 66.055,536.459 L540.738,536.251 C552.824,536.251 562.624,545.980 562.624,557.940 ZM443.354,150.549 L682.850,591.950 C687.547,600.005 690.234,609.332 690.234,619.300 C690.234,639.473 679.228,657.041 662.835,666.589 L662.822,666.589 L404.712,814.051 C396.802,818.353 387.721,820.849 378.057,820.849 C367.744,820.849 358.090,818.062 349.820,813.207 L346.139,811.294 L119.334,676.402 C112.794,672.656 108.382,665.660 108.382,657.645 C108.382,645.683 118.182,635.988 130.268,635.988 C134.256,635.988 137.982,637.060 141.203,638.903 L141.212,638.889 L365.819,772.442 C369.219,774.593 373.259,775.841 377.594,775.841 C381.793,775.841 385.736,774.672 389.067,772.643 L631.397,634.203 L631.328,634.272 C638.193,630.618 642.859,623.448 642.859,615.193 C642.859,611.513 641.932,608.059 640.296,605.025 L421.734,203.356 L279.901,446.504 L452.088,446.504 L403.056,356.533 C400.973,352.745 399.303,348.848 399.303,344.351 C399.303,332.374 409.114,322.665 421.217,322.665 C428.924,322.665 435.689,326.609 439.595,332.562 L508.295,456.121 C510.469,459.521 511.746,463.536 511.746,467.858 C511.746,480.019 501.783,489.717 489.495,489.717 L489.267,489.717 L241.919,489.717 C227.673,489.967 218.942,480.204 220.102,467.452 C220.594,462.051 222.646,458.218 225.375,453.245 L401.715,150.993 C406.795,142.193 412.615,136.956 422.616,136.465 C432.063,135.999 438.808,142.717 443.354,150.549 ZM731.159,170.928 C752.073,183.300 753.386,198.224 753.688,216.098 L753.566,553.169 C753.566,565.131 743.747,574.828 731.660,574.828 C719.572,574.828 709.734,565.131 709.734,553.169 L709.734,220.914 C709.734,212.774 705.310,205.665 698.672,201.855 L435.528,51.348 C431.993,49.009 427.743,47.644 423.171,47.644 C414.451,47.644 406.902,52.607 403.254,59.836 L163.315,471.145 C157.559,480.474 152.033,484.942 142.684,484.942 C130.396,484.942 118.513,474.934 120.433,462.922 C121.311,457.433 122.899,453.505 126.123,448.254 L371.288,27.064 C381.162,10.907 398.650,0.806 419.123,0.806 C429.186,0.806 438.465,3.321 446.643,7.894 L731.159,170.928 Z"/>
</svg>