<svg version="1.1" xmlns="http://www.w3.org/2000/svg" xmlns:xlink="http://www.w3.org/1999/xlink">
    <symbol viewBox="0 0 36 36" id="facebook">
        <path fill-rule="evenodd" d="M35.366,18.182 C35.366,8.536 27.591,0.717 18.000,0.717 C8.409,0.717 0.634,8.536 0.634,18.182 C0.634,26.898 6.984,34.123 15.286,35.433 L15.286,23.230 L10.877,23.230 L10.877,18.182 L15.286,18.182 L15.286,14.334 C15.286,9.957 17.879,7.539 21.846,7.539 C23.746,7.539 25.733,7.880 25.733,7.880 L25.733,12.178 L23.544,12.178 C21.386,12.178 20.713,13.524 20.713,14.905 L20.713,18.182 L25.530,18.182 L24.760,23.230 L20.713,23.230 L20.713,35.433 C29.016,34.123 35.366,26.898 35.366,18.182 Z"/>
    </symbol>

    <symbol viewBox="0 0 35 29" id="telegram">
        <path fill-rule="evenodd" d="M34.213,3.225 L29.104,27.302 C28.750,29.010 27.717,29.420 26.273,28.629 L18.489,22.882 L14.724,26.511 C14.299,26.935 13.946,27.302 13.167,27.302 C12.148,27.302 12.318,26.920 11.978,25.960 L9.289,17.219 L1.575,14.819 C-0.095,14.324 -0.109,13.181 1.943,12.347 L32.034,0.768 C33.406,0.161 34.723,1.107 34.199,3.211 L34.213,3.225 Z"/>
    </symbol>

    <symbol viewBox="0 0 34 35" id="whatsapp"> 
        <path fill-rule="evenodd" d="M29.045,5.845 C25.849,2.660 21.598,0.905 17.070,0.903 C7.739,0.903 0.146,8.463 0.142,17.754 C0.141,20.724 0.920,23.624 2.401,26.179 L-0.000,34.912 L8.974,32.568 C11.446,33.911 14.230,34.619 17.063,34.620 L17.070,34.620 C26.400,34.620 33.995,27.059 33.998,17.768 C34.000,13.264 32.241,9.030 29.045,5.845 ZM17.070,31.774 L17.064,31.774 C14.540,31.773 12.064,31.097 9.903,29.821 L9.390,29.517 L4.064,30.908 L5.486,25.740 L5.151,25.210 C3.742,22.979 2.999,20.402 3.000,17.755 C3.003,10.032 9.315,3.749 17.076,3.749 C20.834,3.751 24.367,5.209 27.023,7.857 C29.679,10.505 31.141,14.024 31.140,17.767 C31.137,25.490 24.825,31.774 17.070,31.774 ZM24.788,21.283 C24.365,21.072 22.285,20.054 21.897,19.913 C21.510,19.773 21.228,19.703 20.946,20.124 C20.664,20.545 19.853,21.494 19.607,21.775 C19.360,22.056 19.113,22.091 18.690,21.880 C18.267,21.670 16.904,21.225 15.289,19.790 C14.031,18.674 13.182,17.295 12.936,16.873 C12.689,16.452 12.934,16.246 13.121,16.014 C13.579,15.448 14.038,14.855 14.178,14.574 C14.320,14.293 14.249,14.047 14.143,13.836 C14.038,13.625 13.192,11.553 12.839,10.709 C12.496,9.889 12.147,9.999 11.887,9.986 C11.641,9.974 11.359,9.972 11.077,9.972 C10.795,9.972 10.337,10.077 9.949,10.499 C9.561,10.920 8.469,11.939 8.469,14.011 C8.469,16.084 9.984,18.086 10.196,18.368 C10.407,18.649 13.178,22.902 17.421,24.725 C18.430,25.160 19.218,25.419 19.833,25.613 C20.846,25.933 21.768,25.888 22.497,25.779 C23.309,25.659 24.999,24.761 25.352,23.777 C25.704,22.794 25.704,21.951 25.598,21.775 C25.493,21.599 25.211,21.494 24.788,21.283 Z"/>
    </symbol>

    <symbol viewBox="0 0 36 30" id="twitter">
        <path fill-rule="evenodd"  d="M35.298,4.369 C34.018,4.945 32.650,5.337 31.210,5.516 C32.678,4.612 33.806,3.186 34.340,1.485 C32.964,2.307 31.439,2.905 29.815,3.238 C28.519,1.818 26.671,0.930 24.618,0.930 C20.687,0.930 17.498,4.191 17.498,8.208 C17.498,8.786 17.564,9.342 17.682,9.873 C11.763,9.587 6.518,6.680 3.007,2.284 C2.389,3.353 2.043,4.595 2.043,5.948 C2.043,8.480 3.302,10.705 5.209,12.012 C4.041,11.973 2.943,11.645 1.985,11.100 L1.985,11.190 C1.985,14.721 4.435,17.665 7.696,18.336 C7.098,18.501 6.467,18.589 5.820,18.589 C5.366,18.589 4.930,18.545 4.494,18.462 C5.408,21.353 8.033,23.461 11.157,23.520 C8.726,25.473 5.645,26.636 2.327,26.636 C1.762,26.636 1.199,26.602 0.634,26.538 C3.801,28.601 7.534,29.808 11.570,29.808 C24.672,29.808 31.828,18.710 31.828,9.103 C31.828,8.794 31.828,8.481 31.806,8.170 C33.197,7.150 34.411,5.861 35.366,4.398 L35.298,4.369 Z"/>
    </symbol>

    <symbol viewBox="0 0 36 36" id="linkedin">
        <path fill-rule="evenodd" d="M30.224,30.035 L25.081,30.035 L25.081,21.976 C25.081,20.054 25.042,17.581 22.401,17.581 C19.719,17.581 19.310,19.672 19.310,21.834 L19.310,30.035 L14.166,30.035 L14.166,13.462 L19.107,13.462 L19.107,15.721 L19.174,15.721 C19.864,14.419 21.543,13.044 24.051,13.044 C29.262,13.044 30.226,16.474 30.226,20.938 L30.226,30.035 L30.224,30.035 ZM8.357,11.194 C6.702,11.194 5.372,9.854 5.372,8.206 C5.372,6.559 6.703,5.220 8.357,5.220 C10.007,5.220 11.344,6.559 11.344,8.206 C11.344,9.854 10.006,11.194 8.357,11.194 ZM10.936,30.035 L5.778,30.035 L5.778,13.462 L10.936,13.462 L10.936,30.035 ZM32.798,0.437 L3.197,0.437 C1.780,0.437 0.633,1.557 0.633,2.939 L0.633,32.668 C0.633,34.051 1.780,35.170 3.197,35.170 L32.793,35.170 C34.209,35.170 35.366,34.051 35.366,32.668 L35.366,2.939 C35.366,1.557 34.209,0.437 32.793,0.437 L32.798,0.437 Z"/>
    </symbol>
</svg>