<svg 
 xmlns="http://www.w3.org/2000/svg"
 xmlns:xlink="http://www.w3.org/1999/xlink"
 width="36px" height="36px">
<path fill-rule="evenodd"  fill="rgb(255, 255, 255)"
 d="M35.366,18.182 C35.366,8.536 27.591,0.717 18.000,0.717 C8.409,0.717 0.634,8.536 0.634,18.182 C0.634,26.898 6.984,34.123 15.286,35.433 L15.286,23.230 L10.877,23.230 L10.877,18.182 L15.286,18.182 L15.286,14.334 C15.286,9.957 17.879,7.539 21.846,7.539 C23.746,7.539 25.733,7.880 25.733,7.880 L25.733,12.178 L23.544,12.178 C21.386,12.178 20.713,13.524 20.713,14.905 L20.713,18.182 L25.530,18.182 L24.760,23.230 L20.713,23.230 L20.713,35.433 C29.016,34.123 35.366,26.898 35.366,18.182 Z"/>
</svg>