<svg 
 xmlns="http://www.w3.org/2000/svg"
 xmlns:xlink="http://www.w3.org/1999/xlink"
 width="36px" height="36px">
<path fill-rule="evenodd"  fill="rgb(255, 255, 255)"
 d="M30.224,30.035 L25.081,30.035 L25.081,21.976 C25.081,20.054 25.042,17.581 22.401,17.581 C19.719,17.581 19.310,19.672 19.310,21.834 L19.310,30.035 L14.166,30.035 L14.166,13.462 L19.107,13.462 L19.107,15.721 L19.174,15.721 C19.864,14.419 21.543,13.044 24.051,13.044 C29.262,13.044 30.226,16.474 30.226,20.938 L30.226,30.035 L30.224,30.035 ZM8.357,11.194 C6.702,11.194 5.372,9.854 5.372,8.206 C5.372,6.559 6.703,5.220 8.357,5.220 C10.007,5.220 11.344,6.559 11.344,8.206 C11.344,9.854 10.006,11.194 8.357,11.194 ZM10.936,30.035 L5.778,30.035 L5.778,13.462 L10.936,13.462 L10.936,30.035 ZM32.798,0.437 L3.197,0.437 C1.780,0.437 0.633,1.557 0.633,2.939 L0.633,32.668 C0.633,34.051 1.780,35.170 3.197,35.170 L32.793,35.170 C34.209,35.170 35.366,34.051 35.366,32.668 L35.366,2.939 C35.366,1.557 34.209,0.437 32.793,0.437 L32.798,0.437 Z"/>
</svg>