<svg 
 xmlns="http://www.w3.org/2000/svg"
 xmlns:xlink="http://www.w3.org/1999/xlink"
 width="18px" height="18px">
<path fill-rule="evenodd"  fill="rgb(72, 122, 250)"
 d="M0.514,16.071 L16.071,0.514 C16.461,0.124 17.094,0.124 17.485,0.515 C17.876,0.905 17.875,1.538 17.485,1.929 L1.928,17.485 C1.538,17.876 0.905,17.876 0.514,17.485 C0.124,17.095 0.124,16.461 0.514,16.071 Z"/>
<path fill-rule="evenodd"  fill="rgb(72, 122, 250)"
 d="M1.929,0.514 L17.485,16.070 C17.876,16.461 17.876,17.094 17.485,17.485 C17.095,17.876 16.461,17.876 16.071,17.485 L0.515,1.929 C0.124,1.538 0.124,0.905 0.515,0.514 C0.905,0.124 1.538,0.124 1.929,0.514 Z"/>
</svg>