<svg 
 xmlns="http://www.w3.org/2000/svg"
 xmlns:xlink="http://www.w3.org/1999/xlink"
 width="71px" height="71px">
<path fill-rule="evenodd"  fill="rgb(55, 114, 206)"
 d="M56.588,66.050 C45.866,72.426 32.279,71.260 22.796,63.151 L12.565,63.151 C11.921,63.151 11.399,62.629 11.399,61.984 C11.399,61.340 11.921,60.817 12.565,60.817 L20.364,60.817 C19.031,59.383 17.845,57.820 16.823,56.150 L6.737,56.150 C6.094,56.150 5.572,55.627 5.572,54.983 C5.572,54.338 6.094,53.816 6.737,53.816 L15.545,53.816 C14.808,52.315 14.203,50.754 13.736,49.148 L4.406,49.148 C3.763,49.148 3.241,48.626 3.241,47.981 C3.241,47.337 3.763,46.814 4.406,46.814 L13.151,46.814 C12.840,45.276 12.654,43.715 12.594,42.147 L2.075,42.147 C1.432,42.147 0.910,41.625 0.910,40.980 C0.910,40.335 1.432,39.813 2.075,39.813 L12.590,39.813 C12.650,38.244 12.836,36.684 13.147,35.145 L4.406,35.145 C3.763,35.145 3.241,34.623 3.241,33.979 C3.241,33.334 3.763,32.812 4.406,32.812 L13.736,32.812 C14.203,31.207 14.808,29.645 15.545,28.144 L6.737,28.144 C6.094,28.144 5.572,27.622 5.572,26.977 C5.572,26.333 6.094,25.810 6.737,25.810 L16.823,25.810 C17.845,24.140 19.031,22.577 20.364,21.143 L12.565,21.143 C11.921,21.143 11.399,20.620 11.399,19.976 C11.399,19.331 11.921,18.809 12.565,18.809 L22.796,18.809 C27.150,15.073 32.512,12.712 38.205,12.024 L38.205,8.307 L37.623,8.307 C35.370,8.307 33.543,6.478 33.543,4.222 C33.543,1.967 35.370,0.138 37.623,0.138 L45.781,0.138 C48.034,0.138 49.860,1.967 49.860,4.222 C49.860,6.478 48.034,8.307 45.781,8.307 L45.198,8.307 L45.198,12.024 C57.579,13.518 67.637,22.738 70.213,34.955 C72.788,47.171 67.310,59.674 56.588,66.050 ZM45.781,5.973 C46.747,5.973 47.529,5.189 47.529,4.222 C47.529,3.256 46.747,2.472 45.781,2.472 L37.623,2.472 C36.657,2.472 35.874,3.256 35.874,4.222 C35.874,5.189 36.657,5.973 37.623,5.973 L45.781,5.973 ZM40.536,8.307 L40.536,11.837 C40.923,11.821 41.311,11.807 41.702,11.807 C42.092,11.807 42.480,11.821 42.867,11.837 L42.867,8.307 L40.536,8.307 ZM41.702,14.141 C26.897,14.141 14.896,26.157 14.896,40.980 C14.896,55.802 26.897,67.819 41.702,67.819 C56.500,67.802 68.491,55.796 68.508,40.980 C68.508,26.157 56.506,14.141 41.702,14.141 ZM59.009,58.307 C58.989,58.326 58.964,58.333 58.944,58.350 C49.413,67.863 33.991,67.863 24.460,58.350 C24.440,58.333 24.413,58.326 24.394,58.307 C24.376,58.289 24.370,58.263 24.352,58.243 C14.851,48.700 14.851,33.260 24.352,23.717 C24.370,23.697 24.374,23.671 24.394,23.653 C24.414,23.634 24.440,23.627 24.460,23.610 C33.991,14.097 49.413,14.097 58.944,23.610 C58.964,23.627 58.989,23.634 59.009,23.653 C59.028,23.671 59.034,23.697 59.051,23.717 C68.553,33.260 68.553,48.700 59.051,58.243 C59.034,58.263 59.029,58.289 59.009,58.307 ZM61.515,39.813 L63.787,39.813 C63.525,34.752 61.529,29.935 58.135,26.174 L56.536,27.780 C56.081,28.236 55.343,28.236 54.888,27.780 C54.432,27.325 54.432,26.586 54.887,26.130 L56.489,24.527 C52.733,21.129 47.923,19.130 42.867,18.868 L42.867,21.143 C42.867,21.787 42.345,22.309 41.702,22.309 C41.058,22.309 40.536,21.787 40.536,21.143 L40.536,18.868 C35.481,19.130 30.670,21.129 26.914,24.527 L28.519,26.128 C28.813,26.423 28.928,26.852 28.820,27.255 C28.712,27.658 28.398,27.973 27.996,28.080 C27.593,28.188 27.164,28.072 26.870,27.777 L25.269,26.174 C21.875,29.935 19.879,34.752 19.617,39.813 L21.889,39.813 C22.532,39.813 23.054,40.335 23.054,40.980 C23.054,41.625 22.532,42.147 21.889,42.147 L19.617,42.147 C19.879,47.208 21.875,52.025 25.269,55.786 L26.867,54.180 C27.162,53.885 27.591,53.770 27.993,53.878 C28.396,53.985 28.710,54.300 28.818,54.703 C28.926,55.105 28.811,55.535 28.517,55.830 L26.914,57.433 C30.670,60.831 35.481,62.829 40.536,63.092 L40.536,60.817 C40.536,60.173 41.058,59.650 41.702,59.650 C42.345,59.650 42.867,60.173 42.867,60.817 L42.867,63.092 C47.923,62.829 52.733,60.831 56.489,57.433 L54.885,55.832 C54.590,55.537 54.475,55.108 54.583,54.705 C54.691,54.302 55.006,53.987 55.408,53.880 C55.810,53.772 56.239,53.887 56.534,54.182 L58.135,55.786 C61.529,52.025 63.525,47.208 63.787,42.147 L61.515,42.147 C60.871,42.147 60.350,41.625 60.350,40.980 C60.350,40.335 60.871,39.813 61.515,39.813 ZM47.430,50.762 C42.680,50.762 39.601,47.347 39.601,41.867 L39.601,40.949 C39.601,35.418 42.733,32.029 47.430,32.029 C52.153,32.029 55.233,35.393 55.233,40.873 L55.233,41.790 C55.233,47.271 52.310,50.762 47.430,50.762 ZM51.762,40.898 C51.762,37.024 50.248,34.679 47.456,34.679 C44.638,34.679 43.098,36.871 43.098,40.924 L43.098,41.841 C43.098,45.970 44.716,48.060 47.508,48.060 C50.379,48.060 51.762,45.920 51.762,41.790 L51.762,40.898 ZM32.111,35.648 L28.171,38.273 L28.171,35.291 L32.503,32.284 L35.608,32.284 L35.608,50.507 L32.111,50.507 L32.111,35.648 Z"/>
</svg>