<svg 
 xmlns="http://www.w3.org/2000/svg"
 xmlns:xlink="http://www.w3.org/1999/xlink"
 width="70px" height="56px">
<path fill-rule="evenodd"  fill="rgb(55, 114, 206)"
 d="M66.379,41.838 L65.172,41.838 L65.172,52.350 C65.172,54.355 63.548,55.988 61.552,55.988 L56.724,55.988 C54.728,55.988 53.103,54.355 53.103,52.350 L53.103,41.838 L51.897,41.838 C49.900,41.838 48.276,40.206 48.276,38.200 L48.276,33.349 C48.276,31.343 49.900,29.711 51.897,29.711 L53.103,29.711 L53.103,3.636 C53.103,1.630 54.728,-0.002 56.724,-0.002 L61.552,-0.002 C63.548,-0.002 65.172,1.630 65.172,3.636 L65.172,29.711 L66.379,29.711 C68.376,29.711 70.000,31.342 70.000,33.349 L70.000,38.200 C70.000,40.206 68.376,41.838 66.379,41.838 ZM55.517,52.348 C55.517,53.018 56.058,53.561 56.724,53.561 L61.552,53.561 C62.218,53.561 62.759,53.018 62.759,52.348 L62.759,41.837 L55.517,41.837 L55.517,52.348 ZM62.759,3.636 C62.759,2.968 62.218,2.423 61.552,2.423 L56.724,2.423 C56.058,2.423 55.517,2.968 55.517,3.636 L55.517,29.711 L62.759,29.711 L62.759,3.636 ZM67.586,33.349 C67.586,32.681 67.045,32.136 66.379,32.136 L63.966,32.136 L54.310,32.136 L51.897,32.136 C51.230,32.136 50.690,32.681 50.690,33.349 L50.690,38.200 C50.690,38.868 51.230,39.413 51.897,39.413 L54.310,39.413 L63.966,39.413 L66.379,39.413 C67.045,39.413 67.586,38.868 67.586,38.200 L67.586,33.349 ZM42.241,33.349 L41.035,33.349 L41.035,52.350 C41.035,54.355 39.410,55.988 37.414,55.988 L32.586,55.988 C30.590,55.988 28.965,54.355 28.965,52.350 L28.965,33.349 L27.759,33.349 C25.762,33.349 24.138,31.717 24.138,29.711 L24.138,24.860 C24.138,22.854 25.762,21.221 27.759,21.221 L28.965,21.221 L28.965,3.636 C28.965,1.630 30.590,-0.002 32.586,-0.002 L37.414,-0.002 C39.410,-0.002 41.035,1.630 41.035,3.636 L41.035,21.221 L42.241,21.221 C44.238,21.221 45.862,22.854 45.862,24.860 L45.862,29.711 C45.862,31.717 44.238,33.349 42.241,33.349 ZM31.379,52.348 C31.379,53.018 31.920,53.561 32.586,53.561 L37.414,53.561 C38.080,53.561 38.621,53.018 38.621,52.348 L38.621,33.349 L31.379,33.349 L31.379,52.348 ZM38.621,3.636 C38.621,2.968 38.080,2.423 37.414,2.423 L32.586,2.423 C31.920,2.423 31.379,2.968 31.379,3.636 L31.379,21.221 L38.621,21.221 L38.621,3.636 ZM43.448,24.860 C43.448,24.191 42.908,23.647 42.241,23.647 L39.828,23.647 L30.172,23.647 L27.759,23.647 C27.092,23.647 26.552,24.191 26.552,24.860 L26.552,29.711 C26.552,30.379 27.092,30.923 27.759,30.923 L30.172,30.923 L39.828,30.923 L42.241,30.923 C42.908,30.923 43.448,30.379 43.448,29.711 L43.448,24.860 ZM18.103,45.477 L16.897,45.477 L16.897,52.350 C16.897,54.355 15.272,55.988 13.276,55.988 L8.448,55.988 C6.452,55.988 4.828,54.355 4.828,52.350 L4.828,45.477 L3.621,45.477 C1.624,45.477 -0.000,43.844 -0.000,41.838 L-0.000,36.987 C-0.000,34.981 1.624,33.349 3.621,33.349 L4.828,33.349 L4.828,3.636 C4.828,1.630 6.452,-0.002 8.448,-0.002 L13.276,-0.002 C15.272,-0.002 16.897,1.630 16.897,3.636 L16.897,33.349 L18.103,33.349 C20.100,33.349 21.724,34.981 21.724,36.987 L21.724,41.838 C21.724,43.844 20.100,45.477 18.103,45.477 ZM7.241,52.348 C7.241,53.018 7.782,53.561 8.448,53.561 L13.276,53.561 C13.942,53.561 14.483,53.018 14.483,52.348 L14.483,45.476 L7.241,45.476 L7.241,52.348 ZM14.483,3.636 C14.483,2.968 13.942,2.423 13.276,2.423 L8.448,2.423 C7.782,2.423 7.241,2.968 7.241,3.636 L7.241,33.349 L14.483,33.349 L14.483,3.636 ZM19.310,36.987 C19.310,36.319 18.770,35.775 18.103,35.775 L15.690,35.775 L6.034,35.775 L3.621,35.775 C2.954,35.775 2.414,36.319 2.414,36.987 L2.414,41.838 C2.414,42.507 2.954,43.051 3.621,43.051 L6.034,43.051 L15.690,43.051 L18.103,43.051 C18.770,43.051 19.310,42.507 19.310,41.838 L19.310,36.987 Z"/>
</svg>