<svg 
 xmlns="http://www.w3.org/2000/svg"
 xmlns:xlink="http://www.w3.org/1999/xlink"
 width="71px" height="67px">
<path fill-rule="evenodd"  fill="rgb(55, 114, 206)"
 d="M69.691,26.833 L69.643,26.962 L61.304,49.843 C61.176,50.191 61.024,50.530 60.849,50.857 L60.849,58.717 C60.844,63.224 57.191,66.876 52.684,66.882 L8.358,66.882 C3.850,66.876 0.197,63.224 0.192,58.717 L0.192,34.224 C0.196,30.943 2.159,27.982 5.180,26.703 L12.685,6.089 C14.234,1.858 18.912,-0.326 23.150,1.204 L64.806,16.367 C69.040,17.914 71.224,22.594 69.691,26.833 ZM60.849,34.224 L60.849,44.279 L64.306,34.797 L60.813,33.524 C60.834,33.757 60.849,33.990 60.849,34.224 ZM2.525,34.224 L2.525,58.717 C2.529,61.936 5.138,64.545 8.358,64.549 L52.684,64.549 C55.903,64.545 58.512,61.936 58.516,58.717 L58.516,34.224 C58.512,31.004 55.903,28.396 52.684,28.392 L8.358,28.392 C5.138,28.396 2.529,31.004 2.525,34.224 ZM7.891,26.082 C8.044,26.074 8.199,26.059 8.358,26.059 L40.306,26.059 L11.689,15.645 L7.891,26.082 ZM14.479,7.983 L14.377,8.264 L12.489,13.453 L47.126,26.059 L52.684,26.059 C55.851,26.063 58.730,27.898 60.071,30.767 L65.100,32.600 L67.098,27.129 L14.479,7.983 ZM64.010,18.558 L22.355,3.396 C19.749,2.458 16.843,3.474 15.389,5.831 L67.785,24.893 C68.185,22.154 66.610,19.510 64.010,18.558 ZM16.523,31.891 C18.456,31.891 20.022,33.458 20.022,35.390 L20.022,40.056 C20.022,41.988 18.456,43.554 16.523,43.554 L9.524,43.554 C7.591,43.554 6.025,41.988 6.025,40.056 L6.025,35.390 C6.025,33.458 7.591,31.891 9.524,31.891 L16.523,31.891 ZM13.024,41.222 L16.523,41.222 C17.167,41.222 17.689,40.699 17.689,40.056 L17.689,38.889 L13.024,38.889 L13.024,41.222 ZM13.024,36.556 L17.689,36.556 L17.689,35.390 C17.689,34.746 17.167,34.224 16.523,34.224 L13.024,34.224 L13.024,36.556 ZM8.358,40.056 C8.358,40.699 8.880,41.222 9.524,41.222 L10.691,41.222 L10.691,38.889 L8.358,38.889 L8.358,40.056 ZM8.358,35.390 L8.358,36.556 L10.691,36.556 L10.691,34.224 L9.524,34.224 C8.880,34.224 8.358,34.746 8.358,35.390 ZM9.524,50.552 L16.523,50.552 C17.167,50.552 17.689,51.075 17.689,51.719 C17.689,52.363 17.167,52.885 16.523,52.885 L9.524,52.885 C8.880,52.885 8.358,52.363 8.358,51.719 C8.358,51.075 8.880,50.552 9.524,50.552 ZM9.524,57.551 L11.857,57.551 C12.501,57.551 13.024,58.073 13.024,58.717 C13.024,59.361 12.501,59.883 11.857,59.883 L9.524,59.883 C8.880,59.883 8.358,59.361 8.358,58.717 C8.358,58.073 8.880,57.551 9.524,57.551 ZM17.689,57.551 L20.022,57.551 C20.667,57.551 21.189,58.073 21.189,58.717 C21.189,59.361 20.667,59.883 20.022,59.883 L17.689,59.883 C17.045,59.883 16.523,59.361 16.523,58.717 C16.523,58.073 17.045,57.551 17.689,57.551 ZM20.022,51.719 C20.022,51.075 20.545,50.552 21.189,50.552 L28.188,50.552 C28.832,50.552 29.354,51.075 29.354,51.719 C29.354,52.363 28.832,52.885 28.188,52.885 L21.189,52.885 C20.545,52.885 20.022,52.363 20.022,51.719 ZM32.854,50.552 L39.853,50.552 C40.497,50.552 41.019,51.075 41.019,51.719 C41.019,52.363 40.497,52.885 39.853,52.885 L32.854,52.885 C32.209,52.885 31.687,52.363 31.687,51.719 C31.687,51.075 32.209,50.552 32.854,50.552 ZM38.658,37.723 C38.658,35.774 39.869,34.032 41.694,33.351 C43.520,32.671 45.576,33.196 46.851,34.669 C47.729,33.650 49.006,33.062 50.351,33.057 C52.498,33.054 54.370,34.519 54.881,36.605 C55.393,38.690 54.411,40.855 52.506,41.845 C50.600,42.835 48.264,42.393 46.851,40.776 C45.576,42.249 43.520,42.775 41.694,42.094 C39.869,41.414 38.658,39.671 38.658,37.723 ZM50.351,40.056 C51.639,40.056 52.684,39.011 52.684,37.723 C52.684,36.434 51.639,35.390 50.351,35.390 C49.062,35.390 48.018,36.434 48.018,37.723 C48.018,39.011 49.062,40.056 50.351,40.056 ZM43.352,40.056 C44.640,40.056 45.685,39.011 45.685,37.723 C45.685,36.434 44.640,35.390 43.352,35.390 C42.064,35.390 41.019,36.434 41.019,37.723 C41.019,39.011 42.064,40.056 43.352,40.056 ZM44.519,50.552 L51.517,50.552 C52.162,50.552 52.684,51.075 52.684,51.719 C52.684,52.363 52.162,52.885 51.517,52.885 L44.519,52.885 C43.874,52.885 43.352,52.363 43.352,51.719 C43.352,51.075 43.874,50.552 44.519,50.552 Z"/>
</svg>