<svg 
 xmlns="http://www.w3.org/2000/svg"
 xmlns:xlink="http://www.w3.org/1999/xlink"
 width="131px" height="50px">
<path fill-rule="evenodd"  fill="rgb(55, 114, 206)"
 d="M64.786,34.934 L63.803,31.648 L56.920,31.648 L55.995,34.934 L50.668,34.934 L56.416,15.921 L64.182,15.921 L70.000,34.934 L64.786,34.934 ZM60.369,19.703 L58.028,27.944 L62.781,27.944 L60.369,19.703 ZM48.557,29.899 C48.332,29.937 47.376,29.970 45.687,29.997 L44.832,30.025 L41.763,30.025 L41.763,34.934 L36.614,34.934 L36.614,15.922 L44.118,15.922 L45.296,15.922 L46.206,15.922 C47.522,15.922 48.526,16.028 49.216,16.241 C50.793,16.733 51.851,17.739 52.394,19.259 C52.673,20.057 52.814,21.258 52.814,22.862 C52.814,24.791 52.658,26.176 52.351,27.020 C51.736,28.689 50.470,29.650 48.557,29.899 ZM47.345,21.108 C47.160,20.562 46.716,20.230 46.014,20.110 C45.875,20.092 45.542,20.082 45.015,20.082 L41.763,20.082 L41.763,25.615 L44.972,25.615 C45.990,25.578 46.609,25.500 46.831,25.379 C47.136,25.213 47.340,24.879 47.442,24.380 C47.507,24.048 47.539,23.554 47.539,22.897 C47.539,22.093 47.474,21.497 47.345,21.108 ZM29.508,18.596 C27.000,18.596 24.811,19.954 23.634,21.973 L34.274,21.973 L32.996,24.695 L22.748,24.695 C22.726,24.921 22.714,25.149 22.714,25.380 C22.714,25.721 22.740,26.056 22.788,26.384 L32.204,26.384 L30.927,29.107 L23.832,29.107 C25.048,30.948 27.135,32.164 29.508,32.164 C31.539,32.164 33.360,31.274 34.605,29.865 L34.605,33.202 C33.059,34.226 31.192,34.825 29.179,34.825 C25.186,34.825 21.759,32.467 20.295,29.107 L16.906,29.107 L18.184,26.384 L19.583,26.384 C19.552,26.079 19.535,25.770 19.535,25.458 C19.535,25.200 19.549,24.948 19.570,24.695 L16.786,24.695 L18.064,21.973 L20.228,21.973 C21.652,18.526 25.122,16.090 29.179,16.090 C31.785,16.090 34.147,17.096 35.882,18.726 L34.772,21.091 C33.527,19.568 31.632,18.596 29.508,18.596 ZM12.096,34.714 C11.316,34.860 10.121,34.934 8.514,34.934 C5.832,34.934 3.962,34.775 2.907,34.456 C1.612,34.065 0.757,33.274 0.344,32.082 C0.114,31.418 -0.000,30.313 -0.000,28.766 L4.790,28.766 C4.790,28.939 4.790,29.070 4.790,29.161 C4.790,29.987 5.029,30.517 5.505,30.754 C5.836,30.917 6.234,31.003 6.703,31.013 L8.464,31.013 C9.362,31.013 9.936,30.967 10.183,30.876 C10.623,30.704 10.913,30.427 11.050,30.043 C11.124,29.807 11.160,29.502 11.160,29.128 C11.160,28.291 10.853,27.782 10.239,27.599 C10.009,27.527 8.942,27.426 7.035,27.299 C5.504,27.190 4.441,27.086 3.845,26.984 C2.278,26.693 1.232,26.093 0.711,25.183 C0.252,24.410 0.023,23.240 0.023,21.674 C0.023,20.482 0.147,19.526 0.395,18.808 C0.643,18.089 1.042,17.543 1.593,17.169 C2.400,16.596 3.434,16.260 4.691,16.159 C5.738,16.068 6.899,16.022 8.176,16.022 C10.186,16.022 11.618,16.137 12.472,16.364 C14.557,16.921 15.599,18.480 15.599,21.042 C15.599,21.252 15.583,21.566 15.552,21.986 L10.763,21.986 C10.763,21.205 10.670,20.681 10.486,20.413 C10.201,20.019 9.415,19.821 8.127,19.821 C6.877,19.821 6.048,19.935 5.643,20.163 C5.239,20.391 5.036,20.888 5.036,21.652 C5.036,22.344 5.216,22.800 5.575,23.018 C5.832,23.174 6.173,23.265 6.596,23.292 L7.562,23.360 C9.632,23.496 10.925,23.593 11.441,23.647 C13.078,23.811 14.265,24.244 15.001,24.945 C15.580,25.492 15.926,26.207 16.036,27.090 C16.101,27.618 16.133,28.216 16.133,28.880 C16.133,30.411 15.986,31.531 15.692,32.242 C15.159,33.545 13.961,34.368 12.096,34.714 Z"/>
<path fill-rule="evenodd"  fill="rgb(55, 114, 206)"
 d="M106.000,49.999 C92.215,49.999 81.000,38.784 81.000,25.000 C81.000,11.215 92.215,-0.000 106.000,-0.000 C119.785,-0.000 130.999,11.215 130.999,25.000 C130.999,38.784 119.785,49.999 106.000,49.999 ZM123.746,40.607 C125.534,38.575 126.981,36.235 127.994,33.678 L119.274,33.678 C118.721,36.324 117.728,38.630 116.539,40.607 L123.746,40.607 ZM122.455,41.962 L115.660,41.962 C113.531,45.015 111.010,47.152 109.242,48.422 C114.342,47.719 118.928,45.384 122.455,41.962 ZM106.640,48.493 C107.574,47.949 111.025,45.782 113.944,41.962 L106.640,41.962 L106.640,48.493 ZM106.640,40.607 L114.908,40.607 C116.193,38.656 117.287,36.348 117.886,33.678 L106.640,33.678 L106.640,40.607 ZM98.109,41.962 C100.919,45.654 104.230,47.805 105.284,48.435 L105.284,41.962 L98.109,41.962 ZM105.284,40.607 L105.284,33.678 L94.193,33.678 C94.782,36.346 95.871,38.656 97.150,40.607 L105.284,40.607 ZM102.802,48.428 C101.041,47.157 98.524,45.016 96.401,41.962 L89.545,41.962 C93.081,45.394 97.684,47.733 102.802,48.428 ZM88.253,40.607 L95.524,40.607 C94.338,38.628 93.350,36.321 92.807,33.678 L84.005,33.678 C85.018,36.235 86.465,38.575 88.253,40.607 ZM88.220,9.430 C86.438,11.462 84.998,13.802 83.991,16.358 L92.630,16.358 C93.180,13.717 94.176,11.410 95.374,9.430 L88.220,9.430 ZM89.506,8.074 L96.259,8.074 C98.403,5.016 100.949,2.865 102.747,1.578 C97.632,2.285 93.035,4.634 89.506,8.074 ZM105.284,1.546 C104.174,2.205 100.819,4.378 97.977,8.074 L105.284,8.074 L105.284,1.546 ZM105.284,9.430 L97.008,9.430 C95.714,11.384 94.613,13.693 94.017,16.358 L105.284,16.358 L105.284,9.430 ZM113.802,8.074 C110.998,4.338 107.684,2.148 106.640,1.512 L106.640,8.074 L113.802,8.074 ZM106.640,9.430 L106.640,16.358 L117.675,16.358 C117.092,13.696 116.015,11.386 114.748,9.430 L106.640,9.430 ZM109.161,1.566 C110.914,2.855 113.407,5.013 115.507,8.074 L122.494,8.074 C118.944,4.614 114.312,2.257 109.161,1.566 ZM123.780,9.430 L116.372,9.430 C117.546,11.412 118.522,13.720 119.061,16.358 L128.009,16.358 C127.002,13.802 125.562,11.462 123.780,9.430 ZM83.504,17.714 C82.759,20.010 82.356,22.459 82.356,25.000 C82.356,27.555 82.763,30.016 83.516,32.323 L128.483,32.323 C129.236,30.016 129.644,27.555 129.644,25.000 C129.644,22.459 129.240,20.010 128.495,17.714 L83.504,17.714 ZM126.950,22.448 L126.359,22.448 L126.364,22.367 C126.419,21.592 126.330,21.140 126.067,20.859 C125.817,20.590 125.387,20.462 124.716,20.455 L122.678,28.218 C122.631,28.420 122.576,28.610 122.533,28.762 C122.507,28.853 122.484,28.934 122.467,29.003 C122.418,29.195 122.457,29.377 122.577,29.518 C122.729,29.696 122.985,29.781 123.293,29.755 L123.393,29.746 L123.241,30.509 L118.103,30.509 L118.288,29.696 L118.385,29.694 C119.324,29.678 120.002,29.666 120.146,28.432 L122.325,20.455 C121.553,20.468 121.064,20.636 120.602,21.040 C120.177,21.422 120.138,21.556 119.955,22.201 L119.884,22.448 L119.245,22.448 L120.103,19.368 L127.776,19.368 L127.750,19.463 L126.950,22.448 ZM118.828,22.448 L118.268,22.448 L118.273,22.368 C118.318,21.608 118.212,21.119 117.937,20.831 C117.629,20.508 117.101,20.440 116.417,20.455 L116.305,20.455 C115.693,20.461 115.629,20.461 115.371,21.336 L114.731,23.898 L115.057,23.898 C115.084,23.898 115.111,23.899 115.137,23.899 C115.872,23.899 116.403,23.530 116.678,22.828 L116.700,22.772 L117.264,22.852 L116.445,26.222 L115.806,26.222 L115.798,26.155 C115.785,26.050 115.782,25.923 115.779,25.775 C115.777,25.661 115.775,25.534 115.767,25.396 C115.744,24.992 115.589,24.863 114.673,24.863 C114.660,24.863 114.647,24.863 114.635,24.863 L114.479,24.863 L113.530,28.130 C113.489,28.327 113.427,28.558 113.382,28.727 L113.349,28.853 C113.274,29.138 113.283,29.328 113.376,29.450 C113.531,29.651 113.943,29.693 114.514,29.694 L114.612,29.694 L114.390,30.509 L109.524,30.509 L109.746,29.696 L109.802,29.694 C110.467,29.676 110.838,29.397 110.968,28.817 L112.992,21.266 C113.024,21.133 113.024,21.093 113.024,21.060 C113.025,21.018 113.027,20.985 113.053,20.901 C113.106,20.729 113.100,20.597 113.032,20.497 C112.867,20.257 112.346,20.223 111.928,20.195 L111.673,20.177 L111.857,19.368 L119.654,19.368 L119.628,19.463 L118.828,22.448 ZM111.163,20.183 C110.386,20.199 109.900,20.258 109.694,20.945 L107.582,28.733 C107.561,28.803 107.538,28.867 107.517,28.929 C107.474,29.049 107.437,29.153 107.433,29.259 L107.432,29.301 C107.426,29.425 107.426,29.506 107.479,29.562 C107.556,29.644 107.754,29.688 108.084,29.694 L108.176,29.696 L107.992,30.509 L103.403,30.509 L103.551,29.694 L103.615,29.694 C103.624,29.694 103.633,29.694 103.642,29.694 C104.454,29.694 105.002,29.424 105.111,28.967 L107.195,21.205 C107.217,21.123 107.239,21.046 107.261,20.974 C107.310,20.807 107.352,20.663 107.344,20.568 C107.306,20.184 106.884,20.175 106.759,20.183 L106.663,20.188 L106.812,19.368 L111.408,19.368 L111.223,20.182 L111.163,20.183 ZM106.213,20.183 C105.626,20.198 105.450,20.463 105.190,20.930 C105.133,21.024 99.646,30.079 99.390,30.475 C99.299,30.615 99.195,30.686 99.079,30.686 C99.079,30.686 99.079,30.686 99.078,30.686 C98.888,30.686 98.756,30.484 98.750,30.475 L98.738,30.456 L98.738,30.434 L98.768,23.670 C98.056,24.847 94.869,30.120 94.651,30.473 C94.564,30.615 94.468,30.686 94.368,30.686 C94.363,30.686 94.358,30.686 94.353,30.686 C94.193,30.675 94.105,30.485 94.095,30.465 L94.089,30.434 L94.089,21.346 C94.091,20.187 93.920,20.186 93.283,20.183 L93.168,20.183 L93.316,19.368 L97.192,19.368 L96.969,20.183 L96.912,20.183 C96.686,20.184 96.528,20.228 96.443,20.315 C96.346,20.415 96.349,20.563 96.352,20.695 L96.353,20.741 C96.354,20.860 96.354,21.013 96.353,21.148 L96.353,25.575 L98.738,21.716 L98.738,20.802 C98.746,20.354 98.558,20.198 97.997,20.183 L97.909,20.181 L98.057,19.368 L102.014,19.368 L101.866,20.183 L101.803,20.183 C101.522,20.184 101.346,20.189 101.256,20.281 C101.177,20.362 101.146,20.532 101.154,20.831 C101.157,20.973 101.156,21.159 101.154,21.347 L101.154,25.434 L103.882,20.975 C103.995,20.766 104.032,20.626 104.022,20.444 C104.008,20.175 103.813,20.159 103.221,20.176 C103.101,20.179 102.975,20.182 102.829,20.183 L102.739,20.183 L102.888,19.368 L106.456,19.368 L106.271,20.182 L106.213,20.183 ZM91.471,22.689 L91.463,22.624 C91.346,21.676 90.956,20.092 89.657,20.092 C89.650,20.092 89.643,20.092 89.637,20.092 C88.850,20.103 88.366,20.479 88.199,21.211 C87.957,22.273 88.473,22.896 89.899,24.281 C90.831,25.185 91.543,25.969 91.553,27.142 C91.560,28.082 91.240,28.906 90.629,29.524 C89.958,30.204 88.968,30.595 87.915,30.600 C87.908,30.600 87.901,30.600 87.894,30.600 C87.129,30.600 86.680,30.427 86.318,30.287 C86.055,30.186 85.846,30.107 85.593,30.116 C85.552,30.118 85.504,30.119 85.451,30.120 C85.104,30.128 84.457,30.142 84.364,30.456 L84.348,30.509 L83.770,30.509 L84.928,26.313 L85.504,26.313 L85.482,26.405 C85.281,27.245 85.431,28.063 85.893,28.649 C86.285,29.147 86.853,29.421 87.492,29.422 C87.493,29.422 87.495,29.422 87.496,29.422 C88.454,29.422 89.328,28.584 89.349,28.075 C89.392,27.028 89.229,26.878 88.621,26.320 C88.374,26.094 88.067,25.811 87.678,25.382 L87.532,25.222 C86.683,24.290 85.882,23.409 85.877,22.282 C85.866,20.118 87.500,18.950 89.120,18.916 C89.130,18.916 89.139,18.916 89.149,18.916 C89.571,18.916 90.068,19.117 90.471,19.280 C90.615,19.339 90.750,19.394 90.867,19.433 C91.191,19.542 91.315,19.544 91.436,19.546 C91.471,19.547 91.505,19.547 91.543,19.549 C92.087,19.592 92.369,19.482 92.430,19.216 L92.444,19.157 L93.027,19.157 L91.986,22.689 L91.471,22.689 ZM91.868,29.151 C91.868,29.151 91.869,29.151 91.870,29.151 C91.986,29.151 92.090,29.202 92.171,29.299 C92.300,29.451 92.350,29.700 92.306,29.963 C92.233,30.398 91.929,30.751 91.629,30.751 C91.628,30.751 91.628,30.751 91.628,30.751 C91.517,30.750 91.419,30.704 91.346,30.615 C91.221,30.468 91.175,30.215 91.222,29.938 C91.297,29.488 91.575,29.151 91.868,29.151 ZM101.288,29.121 C101.289,29.121 101.289,29.121 101.290,29.121 C101.406,29.122 101.510,29.172 101.591,29.268 C101.720,29.421 101.770,29.669 101.726,29.932 C101.653,30.367 101.350,30.720 101.050,30.720 C101.049,30.720 101.048,30.720 101.048,30.720 C100.932,30.720 100.828,30.669 100.747,30.573 C100.618,30.421 100.567,30.171 100.611,29.908 C100.685,29.473 100.988,29.121 101.288,29.121 ZM109.017,29.121 C109.128,29.124 109.239,29.172 109.320,29.268 C109.449,29.421 109.500,29.670 109.455,29.933 C109.382,30.367 109.079,30.720 108.779,30.720 C108.778,30.720 108.777,30.720 108.777,30.720 C108.661,30.720 108.556,30.669 108.476,30.573 C108.347,30.420 108.296,30.171 108.341,29.907 C108.413,29.473 108.716,29.121 109.017,29.121 ZM115.659,29.121 C115.660,29.121 115.661,29.121 115.661,29.121 C115.771,29.122 115.869,29.168 115.944,29.256 C116.068,29.403 116.114,29.656 116.067,29.932 C115.995,30.367 115.691,30.720 115.391,30.720 C115.390,30.720 115.389,30.720 115.389,30.720 C115.279,30.720 115.181,30.674 115.107,30.585 C114.982,30.437 114.936,30.184 114.983,29.907 C115.055,29.473 115.359,29.121 115.659,29.121 ZM124.537,29.151 L124.538,29.151 L124.538,29.151 C124.654,29.151 124.758,29.202 124.840,29.299 C124.968,29.451 125.019,29.700 124.974,29.963 C124.901,30.398 124.597,30.751 124.297,30.751 L124.296,30.751 C124.179,30.750 124.075,30.699 123.994,30.603 C123.865,30.450 123.815,30.202 123.860,29.938 C123.932,29.504 124.236,29.151 124.537,29.151 Z"/>
</svg>