<svg width="70" height="70" viewBox="0 0 70 70" fill="none" xmlns="http://www.w3.org/2000/svg">
<path fill-rule="evenodd" clip-rule="evenodd" d="M34.995 69.99C24.963 69.99 15.401 65.606 8.82 58.146L8.894 62.676C8.909 63.481 8.264 64.143 7.46 64.157C7.454 64.157 7.445 64.157 7.436 64.157C6.643 64.157 5.993 63.522 5.978 62.723L5.832 53.974C5.826 53.583 5.978 53.207 6.252 52.927C6.526 52.647 6.9 52.492 7.29 52.492H16.039C16.844 52.492 17.497 53.146 17.497 53.951C17.497 54.755 16.844 55.409 16.039 55.409H10.3C16.342 62.743 25.441 67.074 34.995 67.074C52.682 67.074 67.074 52.682 67.074 34.995C67.074 32.548 66.811 30.209 66.295 28.043C66.109 27.258 66.593 26.474 67.374 26.287C68.167 26.1 68.946 26.584 69.133 27.369C69.701 29.754 69.99 32.321 69.99 34.995C69.99 54.292 54.292 69.99 34.995 69.99ZM62.699 17.497H53.951C53.146 17.497 52.493 16.844 52.493 16.039C52.493 15.234 53.146 14.581 53.951 14.581H59.69C53.648 7.247 44.549 2.916 34.995 2.916C17.308 2.916 2.916 17.308 2.916 34.995C2.916 37.404 3.17 39.748 3.668 41.968C3.846 42.752 3.351 43.534 2.563 43.709C2.455 43.732 2.35 43.744 2.245 43.744C1.577 43.744 0.974 43.283 0.822 42.603C0.277 40.18 0 37.617 0 34.995C0 15.698 15.698 0 34.995 0C45.063 0 54.658 4.416 61.241 11.925V7.29C61.241 6.486 61.895 5.832 62.699 5.832C63.504 5.832 64.158 6.486 64.158 7.29V16.039C64.158 16.844 63.504 17.497 62.699 17.497Z" fill="#3772CE"/>
<path d="M22.7451 42.9951H11.2725V41.0381L16.9561 34.8389C17.7764 33.9248 18.3584 33.1631 18.7021 32.5537C19.0537 31.9365 19.2295 31.3193 19.2295 30.7021C19.2295 29.8896 18.999 29.2334 18.5381 28.7334C18.085 28.2334 17.4717 27.9834 16.6982 27.9834C15.7764 27.9834 15.0615 28.2646 14.5537 28.8271C14.0459 29.3896 13.792 30.1592 13.792 31.1357H10.9443C10.9443 30.0967 11.1787 29.1631 11.6475 28.335C12.124 27.499 12.7998 26.8506 13.6748 26.3896C14.5576 25.9287 15.5732 25.6982 16.7217 25.6982C18.3779 25.6982 19.6826 26.1162 20.6357 26.9521C21.5967 27.7803 22.0771 28.9287 22.0771 30.3975C22.0771 31.249 21.835 32.1436 21.3506 33.0811C20.874 34.0107 20.0889 35.0693 18.9951 36.2568L14.8232 40.7217H22.7451V42.9951ZM34.5459 36.9131H36.667V39.1982H34.5459V42.9951H31.6982V39.1982H24.3271L24.2451 37.4639L31.6045 25.9326H34.5459V36.9131ZM27.2334 36.9131H31.6982V29.7881L31.4873 30.1631L27.2334 36.9131ZM39.5381 44.46H37.2998L44.0146 25.9326H46.2529L39.5381 44.46ZM59.4014 27.5146L52.5811 42.9951H49.5928L56.4014 28.2178H47.5771V25.9326H59.4014V27.5146Z" fill="#3772CE"/>
</svg>
