<svg 
 xmlns="http://www.w3.org/2000/svg"
 xmlns:xlink="http://www.w3.org/1999/xlink"
 width="36px" height="30px">
<path fill-rule="evenodd"  fill="rgb(255, 255, 255)"
 d="M35.298,4.369 C34.018,4.945 32.650,5.337 31.210,5.516 C32.678,4.612 33.806,3.186 34.340,1.485 C32.964,2.307 31.439,2.905 29.815,3.238 C28.519,1.818 26.671,0.930 24.618,0.930 C20.687,0.930 17.498,4.191 17.498,8.208 C17.498,8.786 17.564,9.342 17.682,9.873 C11.763,9.587 6.518,6.680 3.007,2.284 C2.389,3.353 2.043,4.595 2.043,5.948 C2.043,8.480 3.302,10.705 5.209,12.012 C4.041,11.973 2.943,11.645 1.985,11.100 L1.985,11.190 C1.985,14.721 4.435,17.665 7.696,18.336 C7.098,18.501 6.467,18.589 5.820,18.589 C5.366,18.589 4.930,18.545 4.494,18.462 C5.408,21.353 8.033,23.461 11.157,23.520 C8.726,25.473 5.645,26.636 2.327,26.636 C1.762,26.636 1.199,26.602 0.634,26.538 C3.801,28.601 7.534,29.808 11.570,29.808 C24.672,29.808 31.828,18.710 31.828,9.103 C31.828,8.794 31.828,8.481 31.806,8.170 C33.197,7.150 34.411,5.861 35.366,4.398 L35.298,4.369 Z"/>
</svg>