<svg 
 xmlns="http://www.w3.org/2000/svg"
 xmlns:xlink="http://www.w3.org/1999/xlink"
 width="34px" height="35px">
<path fill-rule="evenodd"  fill="rgb(255, 255, 255)"
 d="M29.045,5.845 C25.849,2.660 21.598,0.905 17.070,0.903 C7.739,0.903 0.146,8.463 0.142,17.754 C0.141,20.724 0.920,23.624 2.401,26.179 L-0.000,34.912 L8.974,32.568 C11.446,33.911 14.230,34.619 17.063,34.620 L17.070,34.620 C26.400,34.620 33.995,27.059 33.998,17.768 C34.000,13.264 32.241,9.030 29.045,5.845 ZM17.070,31.774 L17.064,31.774 C14.540,31.773 12.064,31.097 9.903,29.821 L9.390,29.517 L4.064,30.908 L5.486,25.740 L5.151,25.210 C3.742,22.979 2.999,20.402 3.000,17.755 C3.003,10.032 9.315,3.749 17.076,3.749 C20.834,3.751 24.367,5.209 27.023,7.857 C29.679,10.505 31.141,14.024 31.140,17.767 C31.137,25.490 24.825,31.774 17.070,31.774 ZM24.788,21.283 C24.365,21.072 22.285,20.054 21.897,19.913 C21.510,19.773 21.228,19.703 20.946,20.124 C20.664,20.545 19.853,21.494 19.607,21.775 C19.360,22.056 19.113,22.091 18.690,21.880 C18.267,21.670 16.904,21.225 15.289,19.790 C14.031,18.674 13.182,17.295 12.936,16.873 C12.689,16.452 12.934,16.246 13.121,16.014 C13.579,15.448 14.038,14.855 14.178,14.574 C14.320,14.293 14.249,14.047 14.143,13.836 C14.038,13.625 13.192,11.553 12.839,10.709 C12.496,9.889 12.147,9.999 11.887,9.986 C11.641,9.974 11.359,9.972 11.077,9.972 C10.795,9.972 10.337,10.077 9.949,10.499 C9.561,10.920 8.469,11.939 8.469,14.011 C8.469,16.084 9.984,18.086 10.196,18.368 C10.407,18.649 13.178,22.902 17.421,24.725 C18.430,25.160 19.218,25.419 19.833,25.613 C20.846,25.933 21.768,25.888 22.497,25.779 C23.309,25.659 24.999,24.761 25.352,23.777 C25.704,22.794 25.704,21.951 25.598,21.775 C25.493,21.599 25.211,21.494 24.788,21.283 Z"/>
</svg>