<svg 
 xmlns="http://www.w3.org/2000/svg"
 xmlns:xlink="http://www.w3.org/1999/xlink"
 width="53px" height="70px">
<path fill-rule="evenodd"  fill="rgb(55, 114, 206)"
 d="M52.979,55.760 C52.972,63.601 46.970,69.987 39.568,69.987 L39.568,70.000 L24.968,70.000 C20.082,70.000 15.575,67.177 13.206,62.653 L0.251,37.895 C-0.006,37.403 0.117,36.800 0.546,36.445 L1.879,35.348 C3.417,33.926 5.478,33.202 7.572,33.345 C9.711,33.500 11.688,34.533 13.030,36.195 L14.562,38.044 L14.588,11.141 C14.590,7.867 17.142,5.203 20.260,5.203 C23.381,5.203 25.947,7.868 25.947,11.145 L25.947,24.705 C26.871,23.994 28.011,23.616 29.179,23.634 L29.285,23.634 C31.464,23.634 33.360,24.924 34.305,26.826 C35.333,25.762 36.750,25.157 38.233,25.146 C40.653,25.146 42.720,26.754 43.533,28.992 C44.537,28.094 45.842,27.601 47.192,27.608 L47.291,27.608 C50.404,27.608 52.951,30.238 52.959,33.507 C52.973,39.754 52.979,41.847 52.971,47.517 C52.969,49.636 52.982,52.251 52.979,55.760 ZM50.581,33.510 C50.577,31.538 49.101,29.963 47.291,29.963 L47.192,29.963 C45.378,29.963 43.861,31.512 43.861,33.490 L43.861,36.344 C43.861,36.995 43.331,37.522 42.677,37.522 C42.023,37.522 41.492,36.995 41.492,36.344 L41.492,31.074 C41.492,29.094 40.055,27.486 38.241,27.486 C36.416,27.486 34.978,29.095 34.978,31.074 L34.978,36.660 C34.978,37.311 34.448,37.838 33.794,37.838 C33.140,37.838 32.609,37.311 32.609,36.660 L32.609,29.539 C32.609,27.562 31.099,25.989 29.285,25.989 L29.179,25.989 C27.413,25.989 25.947,27.479 25.947,29.387 L25.947,37.403 C25.947,38.054 25.417,38.581 24.763,38.581 C24.109,38.581 23.578,38.054 23.578,37.403 L23.578,29.621 C23.578,29.594 23.576,29.566 23.576,29.538 C23.576,29.474 23.578,29.410 23.578,29.347 L23.578,11.145 C23.578,9.167 22.075,7.557 20.261,7.557 C18.448,7.557 16.944,9.166 16.943,11.142 L16.921,41.330 C16.921,41.827 16.607,42.271 16.136,42.438 C15.665,42.606 15.139,42.461 14.822,42.077 L11.197,37.691 C10.266,36.531 8.893,35.808 7.405,35.695 C5.950,35.600 4.520,36.110 3.458,37.104 C3.443,37.118 3.428,37.133 3.412,37.145 L2.794,37.657 L15.308,61.565 C17.267,65.307 20.969,67.644 24.969,67.644 L39.498,67.644 C45.600,67.644 50.570,62.308 50.576,55.763 C50.579,52.254 50.583,49.629 50.585,47.509 C50.593,41.843 50.596,39.753 50.581,33.510 ZM29.609,11.653 C28.955,11.653 28.425,11.126 28.425,10.476 C28.406,5.982 24.737,2.350 20.217,2.350 C15.698,2.350 12.029,5.982 12.010,10.476 C12.010,11.126 11.479,11.653 10.825,11.653 C10.171,11.653 9.641,11.126 9.641,10.476 C9.663,4.684 14.392,-0.000 20.217,-0.000 C26.043,-0.000 30.772,4.684 30.793,10.476 C30.793,11.126 30.263,11.653 29.609,11.653 Z"/>
</svg>