<svg 
 xmlns="http://www.w3.org/2000/svg"
 xmlns:xlink="http://www.w3.org/1999/xlink"
 width="62px" height="70px">
<path fill-rule="evenodd"  fill="rgb(55, 114, 206)"
 d="M58.712,58.074 L58.712,67.577 C58.712,68.287 58.277,68.895 57.604,69.127 C56.931,69.359 56.213,69.147 55.774,68.589 L52.339,64.219 L48.289,69.372 C47.975,69.771 47.504,70.000 46.995,70.000 C46.487,70.000 46.015,69.771 45.701,69.372 L41.650,64.219 L37.599,69.372 C37.285,69.771 36.813,70.000 36.305,70.000 C35.796,70.000 35.325,69.771 35.011,69.372 L30.960,64.219 L26.908,69.372 C26.594,69.771 26.123,70.000 25.614,70.000 C25.106,70.000 24.634,69.771 24.320,69.372 L20.268,64.219 L16.832,68.589 C16.393,69.148 15.674,69.359 15.001,69.127 C14.329,68.896 13.894,68.287 13.894,67.578 L13.894,23.583 L2.054,23.583 C0.921,23.583 -0.002,22.663 -0.002,21.533 L-0.002,17.215 L-0.002,15.846 L-0.002,7.953 C-0.002,3.568 3.577,-0.000 7.975,-0.000 L50.735,-0.000 C55.133,-0.000 58.711,3.568 58.711,7.953 L58.711,17.463 C58.711,17.466 58.711,17.469 58.711,17.471 L58.711,44.068 C60.716,45.747 61.992,48.263 61.992,51.071 L61.992,51.071 C61.992,53.879 60.715,56.395 58.712,58.074 ZM7.975,2.051 C4.711,2.051 2.055,4.698 2.055,7.953 L2.055,15.846 L2.055,17.215 L2.055,21.533 L13.894,21.532 L13.894,7.953 C13.894,4.698 11.239,2.051 7.975,2.051 ZM52.819,43.975 C50.993,43.975 49.257,44.665 47.929,45.918 C47.517,46.307 46.866,46.289 46.475,45.878 C46.085,45.467 46.103,44.818 46.515,44.428 C48.226,42.813 50.465,41.924 52.819,41.924 C54.188,41.924 55.487,42.227 56.655,42.765 L56.655,20.215 C56.655,20.213 56.654,20.210 56.654,20.207 L56.654,7.953 C56.654,4.698 53.999,2.051 50.735,2.051 L13.314,2.051 C14.932,3.507 15.950,5.613 15.950,7.953 C15.950,8.515 15.950,64.423 15.950,66.386 L18.974,62.541 C19.288,62.142 19.759,61.913 20.268,61.913 C20.776,61.913 21.248,62.142 21.562,62.541 L25.614,67.694 L29.665,62.541 C29.979,62.142 30.451,61.913 30.959,61.913 C31.468,61.913 31.939,62.142 32.253,62.541 L36.304,67.694 L40.356,62.541 C40.669,62.142 41.141,61.913 41.650,61.913 C42.158,61.913 42.630,62.142 42.944,62.541 L46.995,67.694 L51.045,62.541 C51.359,62.142 51.830,61.913 52.339,61.913 C52.847,61.913 53.319,62.142 53.633,62.541 L56.655,66.385 L56.655,59.376 C55.487,59.915 54.188,60.218 52.819,60.218 C47.760,60.218 43.645,56.114 43.645,51.071 C43.645,50.165 43.779,49.268 44.042,48.404 C44.208,47.862 44.782,47.557 45.325,47.722 C45.869,47.887 46.175,48.459 46.010,49.001 C45.805,49.671 45.702,50.367 45.702,51.071 C45.702,54.983 48.895,58.167 52.819,58.167 C56.743,58.167 59.935,54.983 59.935,51.071 C59.935,47.158 56.743,43.975 52.819,43.975 ZM52.819,55.577 C50.327,55.577 48.299,53.556 48.299,51.071 C48.299,48.586 50.327,46.564 52.819,46.564 C55.311,46.564 57.338,48.586 57.338,51.071 C57.338,53.556 55.311,55.577 52.819,55.577 ZM52.819,48.615 C51.461,48.615 50.356,49.717 50.356,51.071 C50.356,52.425 51.461,53.527 52.819,53.527 C54.177,53.527 55.282,52.425 55.282,51.071 C55.282,49.717 54.177,48.615 52.819,48.615 ZM39.965,38.996 C39.965,38.429 40.426,37.970 40.994,37.970 L50.555,37.970 C51.124,37.970 51.584,38.429 51.584,38.996 C51.584,39.562 51.124,40.021 50.555,40.021 L40.994,40.021 C40.426,40.021 39.965,39.562 39.965,38.996 ZM50.556,32.759 L31.689,32.759 C31.120,32.759 30.660,32.300 30.660,31.733 C30.660,31.167 31.120,30.708 31.689,30.708 L50.555,30.708 C51.124,30.708 51.584,31.167 51.584,31.733 C51.584,32.300 51.124,32.759 50.556,32.759 ZM50.556,27.444 L31.689,27.444 C31.120,27.444 30.660,26.985 30.660,26.419 C30.660,25.853 31.120,25.394 31.689,25.394 L50.555,25.394 C51.124,25.394 51.584,25.853 51.584,26.419 C51.584,26.985 51.124,27.444 50.556,27.444 ZM50.556,22.130 L31.689,22.130 C31.120,22.130 30.660,21.671 30.660,21.105 C30.660,20.538 31.120,20.079 31.689,20.079 L50.555,20.079 C51.124,20.079 51.584,20.538 51.584,21.105 C51.584,21.671 51.124,22.130 50.556,22.130 ZM45.751,11.191 L26.854,11.191 C26.286,11.191 25.826,10.732 25.826,10.166 C25.826,9.600 26.286,9.141 26.854,9.141 L45.751,9.141 C46.319,9.141 46.780,9.600 46.780,10.166 C46.780,10.732 46.319,11.191 45.751,11.191 ZM27.122,21.105 C27.122,21.671 26.662,22.130 26.094,22.130 L22.050,22.130 C21.482,22.130 21.022,21.671 21.022,21.105 C21.022,20.538 21.482,20.079 22.050,20.079 L26.094,20.079 C26.662,20.079 27.122,20.538 27.122,21.105 ZM26.094,27.444 L22.050,27.444 C21.482,27.444 21.022,26.985 21.022,26.419 C21.022,25.853 21.482,25.394 22.050,25.394 L26.094,25.394 C26.662,25.394 27.122,25.853 27.122,26.419 C27.122,26.985 26.662,27.444 26.094,27.444 ZM26.094,32.759 L22.050,32.759 C21.482,32.759 21.022,32.300 21.022,31.733 C21.022,31.167 21.482,30.708 22.050,30.708 L26.094,30.708 C26.662,30.708 27.122,31.167 27.122,31.733 C27.122,32.300 26.662,32.759 26.094,32.759 ZM23.056,42.249 C23.167,42.216 23.276,42.186 23.385,42.159 L23.385,41.308 C23.385,40.741 23.845,40.282 24.414,40.282 C24.982,40.282 25.442,40.741 25.442,41.308 L25.442,41.928 C26.792,41.961 27.700,42.338 27.756,42.362 C28.278,42.585 28.521,43.188 28.297,43.709 C28.074,44.227 27.474,44.469 26.953,44.250 C26.927,44.240 26.334,44.009 25.442,43.980 L25.442,48.251 C25.686,48.342 25.930,48.430 26.169,48.514 C28.205,49.232 29.294,51.038 28.944,53.116 C28.669,54.743 27.407,56.393 25.442,56.837 L25.442,57.802 C25.442,58.369 24.981,58.828 24.413,58.828 C23.845,58.828 23.385,58.369 23.385,57.803 L23.385,56.929 C22.391,56.861 21.596,56.621 20.450,55.874 C19.974,55.564 19.841,54.928 20.152,54.454 C20.463,53.980 21.100,53.848 21.576,54.157 C22.300,54.630 22.741,54.810 23.385,54.873 L23.385,49.627 C22.597,49.273 22.016,48.935 21.545,48.566 C20.609,47.835 20.183,46.561 20.432,45.242 C20.705,43.800 21.710,42.653 23.056,42.249 ZM25.442,54.689 C26.288,54.319 26.789,53.526 26.915,52.776 C26.983,52.372 27.081,51.011 25.483,50.448 C25.469,50.443 25.456,50.438 25.442,50.433 L25.442,54.689 ZM22.814,46.953 C22.980,47.083 23.173,47.208 23.385,47.330 L23.385,44.318 C22.832,44.598 22.542,45.154 22.453,45.622 C22.348,46.177 22.490,46.699 22.814,46.953 Z"/>
</svg>