<svg 
 xmlns="http://www.w3.org/2000/svg"
 xmlns:xlink="http://www.w3.org/1999/xlink"
 width="71px" height="65px">
<path fill-rule="evenodd"  fill="rgb(55, 114, 206)"
 d="M67.191,44.211 C48.395,55.377 26.408,64.123 17.134,64.123 C11.616,64.148 6.125,63.340 0.847,61.728 C0.376,61.567 0.059,61.123 0.059,60.625 L0.059,38.468 C0.059,37.995 0.345,37.569 0.782,37.390 C0.997,37.301 6.044,35.313 14.144,37.772 C11.789,33.950 10.548,29.546 10.560,25.057 C10.556,14.804 16.946,5.634 26.570,2.083 C36.194,-1.468 47.013,1.351 53.677,9.147 C60.341,16.943 61.436,28.063 56.423,37.009 L61.390,34.035 C62.703,33.239 64.285,33.017 65.767,33.419 C67.281,33.824 68.564,34.829 69.317,36.203 C70.869,39.010 69.932,42.542 67.191,44.211 ZM55.309,16.009 C51.742,8.028 43.810,2.892 35.064,2.900 C22.826,2.914 12.908,12.826 12.894,25.057 C12.876,29.898 14.470,34.606 17.425,38.442 C17.637,38.455 17.850,38.468 18.063,38.468 L20.069,38.468 C20.108,38.390 20.157,38.318 20.213,38.251 L21.038,37.426 C21.494,36.971 22.232,36.971 22.688,37.425 C22.957,37.701 23.069,38.092 22.988,38.468 L32.731,38.468 C35.469,38.493 37.811,40.444 38.328,43.133 L40.821,43.133 L51.567,39.824 C57.410,33.320 58.876,23.989 55.309,16.009 ZM67.277,37.337 C66.829,36.517 66.066,35.915 65.163,35.672 C64.291,35.437 63.361,35.568 62.589,36.036 L52.959,41.801 C52.878,41.849 52.792,41.887 52.702,41.915 L42.642,45.012 L43.182,46.121 C43.462,46.700 43.220,47.396 42.642,47.677 C42.063,47.959 41.366,47.719 41.083,47.141 L40.266,45.465 L38.328,45.465 C37.811,48.153 35.469,50.104 32.730,50.129 L18.645,50.129 C18.117,50.123 17.606,50.315 17.214,50.669 C15.299,52.230 12.996,53.244 10.551,53.604 C9.920,53.734 9.303,53.327 9.174,52.697 C9.044,52.066 9.451,51.449 10.082,51.320 C12.110,51.039 14.026,50.222 15.632,48.953 C16.455,48.203 17.531,47.790 18.645,47.797 L32.731,47.797 C34.616,47.731 36.109,46.184 36.109,44.299 C36.109,42.414 34.616,40.867 32.731,40.800 L18.063,40.800 C17.609,40.797 17.156,40.771 16.705,40.720 C16.683,40.719 16.662,40.716 16.641,40.713 C15.723,40.615 14.818,40.424 13.939,40.143 C10.240,38.807 6.242,38.525 2.392,39.329 L2.392,59.763 C7.192,61.101 12.151,61.783 17.134,61.791 C24.779,61.791 45.635,54.303 66.000,42.207 C67.662,41.187 68.225,39.040 67.277,37.337 ZM50.222,33.803 C50.545,33.246 51.258,33.055 51.816,33.376 L52.827,33.959 C53.385,34.281 53.576,34.995 53.254,35.552 C52.932,36.110 52.218,36.301 51.660,35.979 L50.649,35.396 C50.092,35.074 49.900,34.361 50.222,33.803 ZM51.971,29.584 C52.138,28.963 52.778,28.593 53.400,28.760 L54.527,29.062 C55.149,29.228 55.519,29.868 55.352,30.490 C55.185,31.112 54.545,31.481 53.923,31.314 L52.796,31.013 C52.174,30.846 51.804,30.207 51.971,29.584 ZM53.734,26.223 C53.090,26.223 52.567,25.701 52.567,25.057 C52.567,24.413 53.089,23.891 53.734,23.891 L54.901,23.891 C55.545,23.891 56.067,24.413 56.067,25.057 C56.067,25.701 55.545,26.223 54.901,26.223 L53.734,26.223 ZM54.527,21.053 L53.400,21.354 C53.101,21.435 52.782,21.393 52.514,21.239 C52.246,21.084 52.050,20.829 51.971,20.530 C51.805,19.908 52.174,19.269 52.796,19.102 L53.923,18.800 C54.546,18.633 55.185,19.002 55.352,19.624 C55.519,20.246 55.150,20.886 54.527,21.053 ZM52.827,16.155 L51.816,16.738 C51.258,17.060 50.544,16.869 50.222,16.311 C50.067,16.043 50.025,15.725 50.105,15.426 C50.185,15.127 50.381,14.872 50.649,14.718 L51.660,14.135 C52.021,13.926 52.466,13.926 52.827,14.134 C53.189,14.343 53.411,14.728 53.411,15.145 C53.411,15.562 53.188,15.947 52.827,16.155 ZM49.090,12.688 C48.872,12.907 48.575,13.030 48.266,13.030 C47.793,13.030 47.368,12.746 47.187,12.310 C47.007,11.874 47.107,11.373 47.441,11.039 L48.266,10.214 C48.559,9.915 48.991,9.797 49.396,9.904 C49.802,10.011 50.118,10.328 50.226,10.733 C50.333,11.138 50.215,11.569 49.915,11.863 L49.090,12.688 ZM49.090,37.426 L49.915,38.251 C50.213,38.545 50.331,38.976 50.223,39.380 C50.116,39.784 49.800,40.100 49.395,40.208 C48.991,40.315 48.560,40.198 48.266,39.900 L47.440,39.075 C46.985,38.620 46.985,37.881 47.440,37.426 C47.896,36.971 48.635,36.971 49.090,37.426 ZM45.410,9.481 C45.088,10.039 44.374,10.230 43.816,9.908 C43.548,9.754 43.352,9.499 43.272,9.200 C43.192,8.901 43.234,8.583 43.388,8.315 L43.972,7.305 C44.294,6.747 45.008,6.557 45.566,6.879 C46.124,7.201 46.315,7.913 45.993,8.471 L45.410,9.481 ZM44.399,28.994 L44.399,29.283 C44.327,32.488 41.675,35.031 38.468,34.969 L37.398,34.969 L37.398,36.136 C37.398,36.780 36.876,37.302 36.231,37.302 C35.587,37.302 35.064,36.780 35.064,36.136 L35.064,34.969 L31.564,34.969 L31.564,36.136 C31.564,36.780 31.041,37.302 30.397,37.302 C29.752,37.302 29.230,36.780 29.230,36.136 L29.230,34.969 L26.896,34.969 C26.252,34.969 25.730,34.448 25.730,33.803 C25.730,33.159 26.252,32.637 26.896,32.637 L38.468,32.637 C40.387,32.699 41.994,31.200 42.065,29.283 L42.065,28.994 C41.994,27.077 40.387,25.578 38.468,25.640 L31.564,25.640 L31.564,29.139 C31.564,29.783 31.041,30.305 30.397,30.305 C29.752,30.305 29.230,29.783 29.230,29.139 L29.230,20.976 C29.230,20.332 29.752,19.810 30.397,19.810 C31.041,19.810 31.564,20.332 31.564,20.976 L31.564,23.308 L36.901,23.308 C38.413,23.355 39.679,22.171 39.732,20.660 L39.732,20.125 C39.679,18.614 38.413,17.430 36.901,17.477 L26.896,17.477 C26.587,17.477 26.290,17.354 26.071,17.136 C25.852,16.917 25.729,16.620 25.729,16.311 C25.729,16.002 25.852,15.705 26.071,15.486 C26.290,15.267 26.587,15.144 26.896,15.145 L29.230,15.145 L29.230,13.979 C29.230,13.334 29.752,12.813 30.397,12.813 C31.041,12.813 31.564,13.334 31.564,13.978 L31.564,15.144 L35.064,15.144 L35.064,13.978 C35.064,13.334 35.587,12.812 36.231,12.812 C36.875,12.812 37.398,13.334 37.398,13.978 L37.398,15.193 C39.994,15.388 42.015,17.523 42.065,20.125 L42.065,20.660 C42.057,21.818 41.634,22.934 40.871,23.806 C42.982,24.672 44.371,26.714 44.399,28.994 ZM41.023,7.338 C40.943,7.637 40.747,7.891 40.479,8.046 C40.210,8.200 39.892,8.242 39.593,8.161 C38.970,7.994 38.601,7.354 38.769,6.732 L39.072,5.605 C39.239,4.983 39.880,4.614 40.502,4.781 C41.125,4.949 41.493,5.589 41.326,6.211 L41.023,7.338 ZM35.064,7.565 C34.755,7.565 34.458,7.442 34.239,7.223 C34.020,7.005 33.897,6.708 33.898,6.399 L33.898,5.233 C33.898,4.588 34.420,4.066 35.064,4.066 C35.709,4.066 36.231,4.588 36.231,5.233 L36.231,6.399 C36.231,6.708 36.108,7.005 35.890,7.223 C35.671,7.442 35.374,7.565 35.064,7.565 ZM29.932,8.162 C29.529,8.054 29.214,7.740 29.106,7.338 L28.803,6.211 C28.635,5.589 29.004,4.949 29.627,4.781 C30.249,4.614 30.889,4.983 31.057,5.605 L31.360,6.731 C31.468,7.134 31.353,7.564 31.059,7.859 C30.764,8.153 30.335,8.269 29.932,8.162 ZM25.730,10.065 C25.312,10.065 24.927,9.843 24.719,9.481 L24.135,8.471 C23.814,7.914 24.005,7.201 24.563,6.879 C25.121,6.557 25.834,6.747 26.157,7.305 L26.740,8.315 C26.949,8.676 26.949,9.121 26.741,9.482 C26.532,9.843 26.147,10.065 25.730,10.065 ZM22.165,12.990 C21.762,13.098 21.333,12.983 21.038,12.688 L20.213,11.863 C19.919,11.569 19.803,11.139 19.911,10.737 C20.019,10.335 20.334,10.020 20.736,9.912 C21.139,9.805 21.569,9.920 21.863,10.214 L22.688,11.039 C22.983,11.334 23.098,11.763 22.990,12.166 C22.882,12.568 22.568,12.882 22.165,12.990 ZM19.480,16.738 C19.119,16.947 18.674,16.947 18.312,16.738 L17.302,16.155 C16.940,15.947 16.718,15.562 16.718,15.145 C16.717,14.728 16.940,14.343 17.301,14.134 C17.662,13.926 18.107,13.926 18.468,14.135 L19.479,14.718 C19.841,14.926 20.063,15.311 20.063,15.728 C20.064,16.145 19.841,16.530 19.480,16.738 ZM18.158,19.926 C18.265,20.329 18.150,20.758 17.856,21.053 C17.561,21.347 17.131,21.462 16.729,21.354 L15.602,21.053 C14.979,20.886 14.610,20.246 14.777,19.624 C14.943,19.002 15.583,18.633 16.206,18.800 L17.333,19.102 C17.735,19.210 18.050,19.524 18.158,19.926 ZM16.395,23.891 C17.039,23.891 17.562,24.413 17.562,25.057 C17.562,25.701 17.039,26.223 16.395,26.223 L15.228,26.223 C14.583,26.223 14.061,25.701 14.061,25.057 C14.061,24.413 14.583,23.891 15.228,23.891 L16.395,23.891 ZM15.601,29.062 L16.729,28.760 C17.027,28.679 17.346,28.721 17.614,28.876 C17.882,29.031 18.078,29.285 18.157,29.584 C18.324,30.206 17.955,30.846 17.333,31.013 L16.206,31.314 C15.583,31.481 14.943,31.112 14.776,30.490 C14.610,29.868 14.979,29.228 15.601,29.062 ZM17.302,33.959 L18.312,33.376 C18.674,33.168 19.119,33.168 19.480,33.376 C19.841,33.584 20.064,33.969 20.063,34.386 C20.063,34.803 19.841,35.188 19.479,35.396 L18.468,35.980 C18.292,36.082 18.091,36.136 17.886,36.136 C17.358,36.136 16.895,35.782 16.758,35.272 C16.621,34.762 16.844,34.223 17.302,33.959 Z"/>
</svg>