<svg 
 xmlns="http://www.w3.org/2000/svg"
 xmlns:xlink="http://www.w3.org/1999/xlink"
 width="70px" height="70px">
<path fill-rule="evenodd"  fill="rgb(55, 114, 206)"
 d="M62.675,33.487 C62.646,33.517 62.615,33.545 62.582,33.571 C62.579,33.573 62.576,33.575 62.573,33.578 C62.547,33.599 62.519,33.620 62.491,33.639 C62.482,33.645 62.473,33.649 62.464,33.655 C62.440,33.670 62.417,33.684 62.393,33.697 C62.382,33.703 62.370,33.708 62.359,33.713 C62.336,33.724 62.314,33.735 62.290,33.745 C62.278,33.750 62.265,33.754 62.253,33.759 C62.230,33.767 62.207,33.776 62.183,33.784 C62.170,33.787 62.156,33.790 62.142,33.794 C62.119,33.800 62.097,33.806 62.073,33.811 C62.056,33.814 62.038,33.816 62.020,33.819 C62.000,33.822 61.981,33.825 61.961,33.827 C61.923,33.831 61.885,33.833 61.847,33.833 C61.808,33.833 61.770,33.831 61.732,33.827 C61.712,33.825 61.693,33.822 61.674,33.819 C61.656,33.816 61.638,33.814 61.620,33.811 C61.597,33.806 61.574,33.800 61.551,33.794 C61.537,33.790 61.524,33.787 61.510,33.784 C61.486,33.776 61.463,33.767 61.440,33.759 C61.428,33.755 61.415,33.751 61.403,33.745 C61.380,33.736 61.357,33.724 61.334,33.713 C61.323,33.708 61.311,33.703 61.300,33.697 C61.276,33.684 61.253,33.670 61.230,33.655 C61.221,33.649 61.212,33.645 61.203,33.639 C61.174,33.620 61.146,33.599 61.120,33.577 C61.117,33.575 61.114,33.573 61.111,33.571 C61.079,33.544 61.048,33.516 61.018,33.487 L56.364,28.825 C55.909,28.369 55.909,27.631 56.364,27.175 C56.819,26.719 57.555,26.719 58.011,27.175 L60.700,29.868 C60.867,29.481 61.239,29.199 61.688,29.168 C62.258,29.137 62.728,29.481 62.880,29.981 L65.682,27.175 C66.138,26.719 66.874,26.719 67.329,27.175 C67.785,27.631 67.785,28.369 67.329,28.825 L62.675,33.487 ZM61.479,27.544 C61.404,27.558 61.328,27.565 61.254,27.565 C60.708,27.565 60.221,27.180 60.111,26.623 C59.949,25.792 59.748,24.962 59.515,24.156 C59.334,23.538 59.690,22.890 60.307,22.710 C60.934,22.532 61.572,22.888 61.751,23.506 C62.004,24.376 62.222,25.274 62.398,26.173 C62.523,26.805 62.110,27.419 61.479,27.544 ZM59.744,21.179 C59.587,21.250 59.424,21.284 59.262,21.284 C58.820,21.284 58.397,21.030 58.201,20.601 C57.852,19.833 57.461,19.081 57.041,18.365 C56.715,17.808 56.901,17.094 57.455,16.767 C58.010,16.442 58.723,16.627 59.049,17.183 C59.510,17.968 59.938,18.793 60.321,19.633 C60.588,20.218 60.330,20.912 59.744,21.179 ZM55.775,15.695 C55.441,15.695 55.109,15.552 54.879,15.274 C54.347,14.634 53.772,14.014 53.172,13.436 C52.707,12.989 52.695,12.250 53.140,11.786 C53.587,11.322 54.323,11.309 54.788,11.754 C55.451,12.394 56.084,13.076 56.671,13.783 C57.081,14.279 57.014,15.015 56.519,15.426 C56.301,15.608 56.038,15.695 55.775,15.695 ZM50.908,11.271 C50.683,11.271 50.457,11.207 50.257,11.071 C49.569,10.605 48.846,10.171 48.106,9.783 C47.537,9.484 47.317,8.778 47.616,8.208 C47.914,7.639 48.619,7.417 49.190,7.717 C50.006,8.146 50.805,8.624 51.562,9.140 C52.096,9.501 52.235,10.226 51.875,10.760 C51.649,11.092 51.282,11.271 50.908,11.271 ZM45.009,8.370 C44.888,8.370 44.763,8.350 44.642,8.309 C43.858,8.049 43.042,7.823 42.216,7.639 C41.587,7.498 41.192,6.876 41.331,6.247 C41.472,5.618 42.105,5.225 42.720,5.361 C43.625,5.563 44.518,5.809 45.376,6.096 C45.988,6.299 46.317,6.960 46.114,7.571 C45.953,8.060 45.497,8.370 45.009,8.370 ZM38.554,7.089 C38.525,7.089 38.493,7.088 38.463,7.085 C37.732,7.028 36.978,7.000 36.221,7.000 C35.576,7.000 35.056,6.478 35.056,5.834 C35.056,5.189 35.576,4.667 36.221,4.667 C37.038,4.667 37.852,4.698 38.642,4.759 C39.284,4.809 39.764,5.370 39.714,6.012 C39.666,6.625 39.157,7.089 38.554,7.089 ZM18.748,37.333 C8.472,37.333 0.111,28.959 0.111,18.667 C0.111,8.374 8.472,-0.000 18.748,-0.000 C29.024,-0.000 37.385,8.374 37.385,18.667 C37.385,28.959 29.024,37.333 18.748,37.333 ZM18.748,2.333 C9.756,2.333 2.441,9.660 2.441,18.667 C2.441,27.673 9.756,35.000 18.748,35.000 C27.741,35.000 35.056,27.673 35.056,18.667 C35.056,9.660 27.741,2.333 18.748,2.333 ZM32.725,18.623 C32.727,19.600 32.635,20.532 32.452,21.438 C32.341,21.991 31.855,22.375 31.311,22.375 C31.234,22.375 31.158,22.367 31.081,22.352 C30.451,22.224 30.042,21.610 30.167,20.977 C30.319,20.222 30.397,19.444 30.397,18.666 C30.397,18.022 30.918,17.474 31.561,17.474 C32.204,17.474 32.725,17.971 32.725,18.615 L31.561,18.615 L32.725,18.623 ZM30.544,13.507 C30.364,13.606 30.171,13.653 29.981,13.653 C29.571,13.653 29.173,13.435 28.960,13.050 C28.586,12.370 28.143,11.727 27.645,11.135 C27.230,10.644 27.292,9.908 27.783,9.491 C28.272,9.075 29.009,9.138 29.424,9.629 C30.021,10.337 30.551,11.109 31.001,11.923 C31.311,12.486 31.106,13.197 30.544,13.507 ZM29.317,26.018 C29.810,26.433 29.874,27.168 29.462,27.661 C28.866,28.372 28.198,29.026 27.472,29.607 C27.257,29.780 27.000,29.864 26.745,29.864 C26.403,29.864 26.065,29.713 25.835,29.425 C25.433,28.922 25.514,28.189 26.016,27.786 C26.622,27.301 27.181,26.753 27.676,26.162 C28.091,25.670 28.823,25.603 29.317,26.018 ZM23.391,7.869 C23.250,7.869 23.108,7.843 22.969,7.789 C22.249,7.508 21.497,7.300 20.737,7.169 C20.102,7.060 19.677,6.457 19.786,5.822 C19.894,5.188 20.500,4.756 21.131,4.870 C22.045,5.027 22.947,5.277 23.812,5.613 C24.412,5.847 24.709,6.523 24.477,7.123 C24.297,7.585 23.856,7.869 23.391,7.869 ZM19.913,10.648 C21.921,11.167 23.407,12.995 23.407,15.167 C23.407,15.810 22.887,16.333 22.243,16.333 C21.599,16.333 21.078,15.810 21.078,15.167 C21.078,14.305 20.608,13.553 19.913,13.149 L19.913,17.648 C21.921,18.167 23.408,19.996 23.408,22.167 C23.408,24.338 21.921,26.167 19.913,26.686 L19.913,28.000 C19.913,28.644 19.393,29.167 18.748,29.167 C18.104,29.167 17.584,28.644 17.584,28.000 L17.584,26.686 C15.576,26.167 14.089,24.338 14.089,22.167 C14.089,21.523 14.610,21.000 15.254,21.000 C15.898,21.000 16.419,21.523 16.419,22.167 C16.419,23.028 16.888,23.780 17.583,24.185 L17.583,19.686 C15.576,19.166 14.089,17.337 14.089,15.167 C14.089,12.996 15.576,11.167 17.583,10.648 L17.583,9.333 C17.583,8.689 18.104,8.166 18.748,8.166 C19.392,8.166 19.913,8.689 19.913,9.333 L19.913,10.648 ZM19.913,24.184 C20.608,23.780 21.078,23.028 21.078,22.166 C21.078,21.305 20.608,20.553 19.913,20.149 L19.913,24.184 ZM17.583,13.149 C16.888,13.553 16.419,14.305 16.419,15.167 C16.419,16.028 16.888,16.780 17.583,17.184 L17.583,13.149 ZM15.009,7.613 C14.278,7.862 13.568,8.185 12.898,8.576 C12.714,8.683 12.512,8.734 12.313,8.734 C11.913,8.734 11.522,8.527 11.306,8.155 C10.983,7.597 11.171,6.883 11.726,6.559 C12.531,6.091 13.382,5.702 14.260,5.405 C14.872,5.199 15.532,5.523 15.738,6.134 C15.943,6.744 15.617,7.407 15.009,7.613 ZM13.366,30.375 C13.150,30.749 12.758,30.958 12.355,30.958 C12.157,30.958 11.959,30.908 11.774,30.802 C10.972,30.339 10.212,29.793 9.515,29.178 C9.032,28.752 8.985,28.016 9.409,27.531 C9.836,27.046 10.573,27.001 11.053,27.425 C11.635,27.939 12.269,28.393 12.939,28.781 C13.497,29.103 13.688,29.816 13.366,30.375 ZM7.790,14.700 C7.619,15.174 7.172,15.470 6.695,15.470 C6.564,15.470 6.429,15.447 6.298,15.399 C5.695,15.180 5.381,14.510 5.600,13.905 C5.916,13.032 6.321,12.187 6.804,11.393 C7.138,10.842 7.852,10.666 8.405,11.003 C8.954,11.338 9.129,12.056 8.794,12.606 C8.391,13.268 8.054,13.973 7.790,14.700 ZM7.231,20.429 C7.348,21.194 7.541,21.951 7.807,22.678 C8.028,23.283 7.717,23.953 7.112,24.174 C6.981,24.223 6.846,24.246 6.713,24.246 C6.236,24.246 5.791,23.952 5.618,23.479 C5.300,22.607 5.068,21.698 4.928,20.779 C4.832,20.142 5.268,19.547 5.904,19.450 C6.543,19.354 7.134,19.792 7.231,20.429 ZM18.442,30.329 C18.451,30.329 18.460,30.329 18.468,30.331 L18.749,30.333 C19.433,30.333 20.116,30.273 20.784,30.157 C21.415,30.043 22.021,30.468 22.133,31.103 C22.246,31.738 21.822,32.343 21.188,32.454 C20.389,32.595 19.568,32.666 18.749,32.666 L18.416,32.663 C17.774,32.649 17.264,32.114 17.278,31.470 C17.293,30.836 17.811,30.329 18.442,30.329 ZM5.110,35.344 C5.138,35.316 5.167,35.289 5.198,35.264 C5.208,35.256 5.217,35.249 5.227,35.242 C5.247,35.226 5.268,35.210 5.290,35.196 C5.305,35.186 5.320,35.177 5.336,35.168 C5.352,35.158 5.369,35.147 5.387,35.138 C5.405,35.128 5.423,35.120 5.441,35.111 C5.457,35.104 5.473,35.096 5.489,35.089 C5.509,35.081 5.530,35.074 5.550,35.067 C5.565,35.061 5.580,35.055 5.596,35.051 C5.619,35.044 5.643,35.038 5.667,35.032 C5.680,35.029 5.692,35.025 5.705,35.023 C5.738,35.016 5.770,35.012 5.803,35.008 C5.808,35.008 5.813,35.006 5.818,35.006 C5.896,34.998 5.975,34.998 6.053,35.006 C6.061,35.007 6.069,35.008 6.077,35.009 C6.106,35.013 6.136,35.017 6.165,35.023 C6.181,35.026 6.197,35.031 6.213,35.035 C6.234,35.040 6.254,35.044 6.274,35.050 C6.294,35.057 6.313,35.064 6.332,35.071 C6.348,35.076 6.364,35.082 6.380,35.088 C6.402,35.097 6.422,35.108 6.443,35.118 C6.456,35.124 6.469,35.130 6.482,35.137 C6.506,35.150 6.530,35.164 6.553,35.179 C6.562,35.184 6.571,35.189 6.579,35.194 C6.647,35.240 6.710,35.291 6.766,35.349 L11.418,40.008 C11.874,40.465 11.874,41.202 11.418,41.658 C11.191,41.885 10.893,42.000 10.595,42.000 C10.296,42.000 9.998,41.885 9.771,41.658 L7.090,38.973 C6.922,39.353 6.557,39.631 6.114,39.665 C6.084,39.668 6.052,39.669 6.023,39.669 C5.505,39.669 5.058,39.326 4.911,38.843 L2.099,41.658 C1.872,41.886 1.574,42.000 1.276,42.000 C0.978,42.000 0.680,41.886 0.453,41.658 C-0.003,41.202 -0.003,40.465 0.453,40.008 L5.110,35.344 ZM6.349,41.282 C6.979,41.139 7.598,41.539 7.738,42.167 C7.921,42.996 8.147,43.813 8.408,44.599 C8.611,45.210 8.281,45.870 7.671,46.073 C7.548,46.114 7.424,46.134 7.303,46.134 C6.815,46.134 6.359,45.825 6.197,45.335 C5.912,44.475 5.665,43.579 5.463,42.674 C5.325,42.045 5.721,41.421 6.349,41.282 ZM8.306,47.578 C8.877,47.277 9.579,47.499 9.879,48.069 C10.270,48.813 10.702,49.537 11.164,50.222 C11.526,50.755 11.388,51.481 10.855,51.842 C10.655,51.979 10.428,52.043 10.202,52.043 C9.829,52.043 9.462,51.865 9.237,51.532 C8.725,50.775 8.247,49.975 7.815,49.153 C7.517,48.584 7.736,47.878 8.306,47.578 ZM13.529,53.149 C14.108,53.750 14.725,54.325 15.365,54.856 C15.858,55.267 15.927,56.003 15.517,56.500 C15.287,56.777 14.955,56.921 14.619,56.921 C14.357,56.921 14.094,56.832 13.876,56.652 C13.170,56.064 12.489,55.430 11.850,54.765 C11.404,54.300 11.419,53.562 11.882,53.116 C12.348,52.668 13.085,52.683 13.529,53.149 ZM18.446,57.019 C19.162,57.440 19.913,57.831 20.679,58.181 C21.264,58.448 21.522,59.140 21.255,59.726 C21.059,60.156 20.637,60.409 20.194,60.409 C20.032,60.409 19.869,60.375 19.712,60.303 C18.873,59.920 18.051,59.493 17.267,59.031 C16.712,58.706 16.527,57.990 16.852,57.434 C17.178,56.880 17.895,56.694 18.446,57.019 ZM24.229,59.497 C25.029,59.730 25.856,59.932 26.689,60.095 C27.320,60.219 27.733,60.832 27.608,61.465 C27.500,62.021 27.013,62.406 26.467,62.406 C26.392,62.406 26.318,62.399 26.242,62.385 C25.340,62.208 24.445,61.990 23.578,61.737 C22.960,61.557 22.605,60.909 22.786,60.291 C22.964,59.674 23.608,59.312 24.229,59.497 ZM30.473,60.591 C31.215,60.641 31.973,60.667 32.726,60.667 C33.370,60.667 33.891,61.189 33.891,61.833 C33.891,62.477 33.370,63.000 32.726,63.000 C31.921,63.000 31.109,62.973 30.315,62.918 C29.673,62.874 29.189,62.317 29.232,61.674 C29.276,61.033 29.819,60.555 30.473,60.591 ZM51.363,32.667 C61.639,32.667 70.000,41.041 70.000,51.333 C70.000,61.626 61.639,70.000 51.363,70.000 C41.087,70.000 32.726,61.626 32.726,51.333 C32.726,41.041 41.087,32.667 51.363,32.667 ZM51.363,67.666 C60.356,67.666 67.671,60.340 67.671,51.333 C67.671,42.326 60.356,35.000 51.363,35.000 C42.371,35.000 35.056,42.326 35.056,51.333 C35.056,60.340 42.371,67.666 51.363,67.666 ZM38.519,52.117 C39.158,52.021 39.749,52.459 39.846,53.096 C39.962,53.861 40.156,54.618 40.422,55.345 C40.643,55.949 40.332,56.620 39.727,56.841 C39.596,56.890 39.461,56.913 39.328,56.913 C38.851,56.913 38.406,56.619 38.233,56.145 C37.915,55.274 37.683,54.365 37.543,53.446 C37.447,52.809 37.883,52.214 38.519,52.117 ZM39.310,48.136 C39.178,48.136 39.043,48.114 38.913,48.066 C38.310,47.847 37.996,47.177 38.215,46.571 C38.531,45.699 38.936,44.854 39.419,44.060 C39.753,43.509 40.467,43.333 41.020,43.670 C41.569,44.005 41.743,44.722 41.409,45.273 C41.006,45.935 40.668,46.639 40.405,47.366 C40.234,47.841 39.787,48.136 39.310,48.136 ZM43.668,60.092 C44.250,60.606 44.884,61.060 45.554,61.448 C46.112,61.770 46.303,62.483 45.981,63.041 C45.765,63.416 45.373,63.625 44.970,63.625 C44.772,63.625 44.574,63.575 44.389,63.468 C43.587,63.005 42.827,62.459 42.130,61.844 C41.647,61.419 41.600,60.682 42.024,60.198 C42.452,59.713 43.187,59.668 43.668,60.092 ZM43.209,54.833 C42.565,54.833 42.045,54.311 42.045,53.667 C42.045,53.023 42.565,52.500 43.209,52.500 L44.440,52.500 C44.398,52.118 44.374,51.729 44.374,51.334 C44.374,50.938 44.398,50.550 44.440,50.167 L43.209,50.167 C42.565,50.167 42.045,49.644 42.045,49.000 C42.045,48.356 42.565,47.834 43.209,47.834 L44.972,47.834 C46.184,44.417 49.114,42.000 52.528,42.000 C54.571,42.000 56.524,42.867 58.030,44.440 C58.473,44.905 58.458,45.644 57.992,46.089 C57.530,46.534 56.793,46.520 56.345,46.054 C55.285,44.944 53.929,44.334 52.528,44.334 C50.377,44.334 48.496,45.743 47.487,47.834 L49.034,47.834 C49.678,47.834 50.198,48.356 50.198,49.000 C50.198,49.644 49.678,50.167 49.034,50.167 L46.786,50.167 C46.733,50.547 46.704,50.936 46.704,51.333 C46.704,51.731 46.733,52.120 46.786,52.500 L49.034,52.500 C49.678,52.500 50.198,53.023 50.198,53.667 C50.198,54.311 49.678,54.833 49.034,54.833 L47.487,54.833 C48.496,56.924 50.377,58.333 52.528,58.333 C53.929,58.333 55.285,57.722 56.348,56.612 C56.793,56.146 57.531,56.132 57.993,56.577 C58.459,57.023 58.474,57.762 58.030,58.227 C56.524,59.800 54.571,60.667 52.528,60.667 C49.114,60.667 46.184,58.250 44.972,54.833 L43.209,54.833 ZM51.057,62.996 C51.065,62.996 51.075,62.996 51.083,62.997 L51.364,63.000 C52.047,63.000 52.731,62.940 53.399,62.823 C54.029,62.710 54.636,63.135 54.748,63.770 C54.861,64.404 54.436,65.010 53.803,65.121 C53.004,65.262 52.182,65.333 51.364,65.333 L51.030,65.329 C50.389,65.316 49.879,64.781 49.892,64.137 C49.908,63.502 50.426,62.996 51.057,62.996 ZM60.291,58.829 C60.704,58.336 61.438,58.271 61.932,58.685 C62.425,59.099 62.489,59.834 62.077,60.328 C61.481,61.038 60.813,61.693 60.087,62.274 C59.872,62.446 59.615,62.530 59.360,62.530 C59.018,62.530 58.680,62.380 58.449,62.092 C58.048,61.589 58.129,60.855 58.631,60.452 C59.237,59.967 59.796,59.420 60.291,58.829 ZM61.575,45.716 C61.201,45.036 60.758,44.393 60.260,43.802 C59.845,43.311 59.906,42.575 60.398,42.158 C60.888,41.743 61.622,41.804 62.039,42.296 C62.636,43.004 63.166,43.775 63.615,44.589 C63.926,45.153 63.721,45.864 63.159,46.174 C62.979,46.273 62.786,46.320 62.596,46.320 C62.186,46.320 61.788,46.101 61.575,45.716 ZM64.176,50.140 C64.818,50.140 65.340,50.638 65.340,51.281 L64.176,51.281 L65.340,51.290 C65.342,52.266 65.250,53.198 65.067,54.105 C64.956,54.658 64.470,55.042 63.926,55.042 C63.849,55.042 63.773,55.033 63.696,55.018 C63.066,54.891 62.657,54.276 62.783,53.644 C62.934,52.889 63.012,52.111 63.012,51.333 C63.012,50.689 63.533,50.140 64.176,50.140 ZM56.006,40.535 C55.865,40.535 55.722,40.510 55.584,40.456 C54.864,40.175 54.112,39.967 53.352,39.835 C52.717,39.727 52.292,39.124 52.400,38.489 C52.509,37.856 53.117,37.425 53.746,37.537 C54.660,37.693 55.562,37.944 56.427,38.280 C57.027,38.513 57.324,39.190 57.092,39.790 C56.912,40.252 56.471,40.535 56.006,40.535 ZM47.624,40.280 C46.893,40.528 46.183,40.852 45.513,41.242 C45.329,41.350 45.127,41.401 44.928,41.401 C44.527,41.401 44.137,41.193 43.921,40.821 C43.598,40.264 43.786,39.550 44.341,39.225 C45.146,38.757 45.997,38.369 46.874,38.072 C47.486,37.865 48.145,38.192 48.353,38.801 C48.558,39.411 48.232,40.074 47.624,40.280 Z"/>
</svg>