<svg 
 xmlns="http://www.w3.org/2000/svg"
 xmlns:xlink="http://www.w3.org/1999/xlink"
 width="70px" height="61px">
<path fill-rule="evenodd"  fill="rgb(55, 114, 206)"
 d="M61.894,47.893 L61.894,55.963 C61.894,58.742 59.628,61.003 56.842,61.003 L41.608,61.003 C38.821,61.003 36.554,58.742 36.554,55.963 L36.554,47.959 L9.166,47.959 C4.112,47.959 -0.000,43.857 -0.000,38.816 L-0.000,9.141 C-0.000,4.100 4.112,-0.002 9.165,-0.002 L60.834,-0.002 C65.888,-0.002 70.000,4.100 70.000,9.141 L70.000,38.816 C70.000,43.499 66.449,47.366 61.894,47.893 ZM39.228,55.963 C39.228,57.271 40.295,58.334 41.607,58.334 L56.842,58.334 C58.153,58.334 59.219,57.271 59.219,55.963 L59.218,55.963 L59.218,41.729 L39.228,41.729 L39.228,55.963 ZM54.670,39.061 L54.670,33.999 C54.670,31.186 52.227,28.898 49.224,28.898 C46.220,28.898 43.775,31.186 43.775,33.999 L43.775,39.061 L54.670,39.061 ZM2.675,18.154 L67.326,18.154 L67.326,13.600 L2.675,13.600 L2.675,18.154 ZM67.326,9.142 C67.326,5.572 64.414,2.667 60.835,2.667 L9.166,2.667 C5.586,2.667 2.675,5.571 2.675,9.142 L2.675,10.932 L67.326,10.932 L67.326,9.142 ZM67.326,20.823 L2.675,20.823 L2.675,38.817 C2.675,42.386 5.587,45.291 9.166,45.291 L36.554,45.291 L36.554,40.396 C36.554,39.658 37.152,39.062 37.892,39.062 L41.101,39.062 L41.101,34.000 C41.101,29.715 44.745,26.230 49.224,26.230 C53.704,26.230 57.346,29.715 57.346,34.000 L57.346,39.062 L60.557,39.062 C61.297,39.062 61.895,39.658 61.895,40.396 L61.895,45.184 C64.969,44.676 67.326,42.024 67.326,38.816 L67.326,20.823 ZM30.694,40.150 L9.362,40.150 C8.622,40.150 8.025,39.554 8.025,38.816 C8.025,38.079 8.623,37.482 9.362,37.482 L30.694,37.482 C31.433,37.482 32.031,38.079 32.031,38.816 C32.031,39.554 31.433,40.150 30.694,40.150 ZM50.561,51.876 L50.561,54.852 C50.561,55.589 49.963,56.186 49.224,56.186 C48.484,56.186 47.886,55.589 47.886,54.852 L47.886,51.876 C46.167,51.311 44.915,49.712 44.915,47.810 C44.915,45.438 46.847,43.510 49.224,43.510 C51.601,43.510 53.534,45.438 53.534,47.810 C53.534,49.712 52.281,51.311 50.561,51.876 ZM49.224,46.178 C48.323,46.178 47.590,46.911 47.590,47.810 C47.590,48.709 48.323,49.441 49.224,49.441 C50.125,49.441 50.859,48.709 50.859,47.810 C50.859,46.911 50.125,46.178 49.224,46.178 Z"/>
</svg>