<svg 
 xmlns="http://www.w3.org/2000/svg"
 xmlns:xlink="http://www.w3.org/1999/xlink"
 width="54px" height="70px">
<path fill-rule="evenodd"  fill="rgb(55, 114, 206)"
 d="M53.667,49.901 C53.363,50.964 52.496,51.761 51.405,51.983 L41.200,54.056 L44.415,61.015 C44.421,61.027 44.425,61.039 44.430,61.051 C44.432,61.057 44.435,61.061 44.438,61.067 L45.705,63.810 C45.999,64.447 46.025,65.159 45.779,65.815 C45.532,66.472 45.042,66.994 44.399,67.285 L38.932,69.762 C38.580,69.921 38.206,70.001 37.832,70.001 C37.520,70.001 37.208,69.946 36.907,69.835 C36.244,69.591 35.717,69.105 35.423,68.468 L30.918,58.715 L22.661,65.006 C21.778,65.679 20.602,65.807 19.592,65.340 C18.582,64.873 17.925,63.898 17.879,62.795 L17.538,54.675 C17.536,54.655 17.533,54.635 17.532,54.614 L16.059,19.488 C16.010,18.314 16.675,17.241 17.753,16.752 C18.831,16.264 20.086,16.468 20.950,17.272 L52.843,46.953 C53.655,47.709 53.971,48.839 53.667,49.901 ZM51.421,48.452 L19.528,18.770 C19.152,18.420 18.735,18.568 18.617,18.622 C18.498,18.676 18.112,18.891 18.133,19.402 L19.558,53.368 C19.560,53.388 19.563,53.407 19.563,53.427 L19.953,62.709 C19.974,63.196 20.322,63.408 20.470,63.477 C20.618,63.546 21.006,63.673 21.395,63.376 L30.686,56.297 C30.937,56.106 31.262,56.038 31.569,56.114 C31.876,56.189 32.132,56.399 32.263,56.684 L37.311,67.613 C37.375,67.750 37.488,67.855 37.631,67.908 C37.774,67.960 37.929,67.955 38.068,67.892 L43.535,65.415 C43.674,65.352 43.780,65.239 43.833,65.098 C43.886,64.956 43.881,64.802 43.817,64.665 L42.550,61.922 C42.544,61.910 42.540,61.897 42.535,61.885 C42.533,61.880 42.530,61.875 42.527,61.870 L38.769,53.737 C38.638,53.452 38.644,53.123 38.787,52.844 C38.931,52.564 39.194,52.365 39.504,52.302 L50.987,49.969 C51.469,49.871 51.625,49.497 51.670,49.341 C51.714,49.185 51.780,48.786 51.421,48.452 ZM34.275,26.233 C34.133,26.233 33.989,26.205 33.851,26.143 C33.328,25.912 33.094,25.303 33.328,24.785 C34.756,21.624 35.108,18.037 34.318,14.684 L34.318,14.684 C34.188,14.131 34.535,13.578 35.094,13.449 C35.653,13.320 36.210,13.664 36.340,14.217 C37.232,18.005 36.835,22.056 35.223,25.625 C35.050,26.007 34.672,26.233 34.275,26.233 ZM34.257,11.244 C33.751,11.510 33.123,11.318 32.854,10.817 C28.879,3.390 19.713,0.314 11.988,3.815 C8.086,5.582 5.113,8.749 3.617,12.731 C2.120,16.714 2.279,21.035 4.063,24.899 C5.929,28.938 9.447,32.041 13.715,33.413 C14.261,33.589 14.559,34.169 14.382,34.709 C14.240,35.143 13.833,35.420 13.395,35.420 C13.289,35.420 13.181,35.404 13.075,35.369 C8.255,33.820 4.282,30.315 2.176,25.755 C0.160,21.391 -0.019,16.511 1.671,12.014 C3.361,7.517 6.719,3.941 11.124,1.945 C19.849,-2.008 30.199,1.466 34.688,9.854 C34.957,10.356 34.764,10.978 34.257,11.244 ZM13.683,23.456 C14.098,23.848 14.113,24.499 13.718,24.910 C13.514,25.122 13.240,25.229 12.966,25.229 C12.709,25.229 12.451,25.134 12.250,24.944 C11.393,24.134 10.707,23.182 10.214,22.113 C8.081,17.495 10.139,12.019 14.802,9.906 C17.060,8.882 19.586,8.792 21.914,9.650 C24.242,10.508 26.093,12.213 27.126,14.450 C27.701,15.695 27.985,17.018 27.969,18.382 C27.963,18.950 27.491,19.407 26.919,19.398 C26.346,19.392 25.887,18.926 25.893,18.358 C25.906,17.300 25.686,16.273 25.239,15.305 C24.436,13.567 22.998,12.243 21.190,11.577 C19.382,10.910 17.420,10.981 15.665,11.776 C12.043,13.417 10.445,17.670 12.102,21.257 C12.485,22.088 13.017,22.827 13.683,23.456 Z"/>
</svg>